<svg width="35" height="21" viewBox="0 0 35 21" fill="none" xmlns="http://www.w3.org/2000/svg">
<path fill-rule="evenodd" clip-rule="evenodd" d="M34.5463 16.1489C34.3841 16.5377 34.2726 16.9611 34.0493 17.3083C33.5449 18.0927 32.7953 18.4806 31.882 18.5052C31.2865 18.5213 30.6899 18.4987 30.0945 18.5183C29.9801 18.5221 29.8213 18.6132 29.7636 18.7132C28.2069 21.418 24.7129 21.4104 23.1292 18.6981C23.0751 18.6054 22.927 18.5174 22.8224 18.5171C19.1231 18.5078 15.4236 18.5075 11.7242 18.5185C11.6149 18.5188 11.4617 18.6267 11.4032 18.7292C9.87366 21.4085 6.32259 21.4 4.78248 18.7137C4.72507 18.6136 4.56654 18.5226 4.452 18.5184C3.90171 18.4982 3.35034 18.5113 2.79941 18.5088C1.40353 18.5025 0.380507 17.6664 0.0554248 16.271C0.0454375 16.2282 0.0188049 16.1895 0 16.1489C0 14.5985 0 13.048 0 11.4975C0.0278925 11.4122 0.0593843 11.3279 0.0831379 11.2412C0.373129 10.185 1.03058 9.50449 2.05891 9.21556C2.60003 9.06355 3.1451 8.92506 3.69215 8.79749C4.25513 8.66622 4.65048 8.33758 4.93265 7.82156C5.73631 6.35137 6.55455 4.8897 7.36883 3.42561C8.36603 1.63252 9.86817 0.735648 11.8776 0.736667C14.7552 0.738148 17.6329 0.738703 20.5105 0.736574C22.521 0.735093 24.0214 1.63437 25.0186 3.42691C25.8108 4.85063 26.6099 6.27037 27.3867 7.70288C27.7144 8.30721 28.179 8.64669 28.847 8.73297C29.4147 8.80629 29.9801 8.90766 30.541 9.0243C32.6957 9.47283 34.1298 11.0128 34.4934 13.2491C34.5003 13.2919 34.5282 13.3312 34.5462 13.3721C34.5463 14.2976 34.5463 15.2233 34.5463 16.1489ZM31.6994 10.7341C31.7085 10.6995 31.7175 10.6649 31.7266 10.6303C31.4186 10.4977 31.1207 10.3235 30.8004 10.2419C30.235 10.0976 29.6602 9.96542 29.0819 9.90747C27.7883 9.77777 26.8765 9.15928 26.2706 7.9507C25.5863 6.58586 24.8024 5.27388 24.0602 3.93978C23.2828 2.54226 22.1125 1.84544 20.5455 1.84702C17.6668 1.84979 14.7882 1.85637 11.9096 1.84452C10.2867 1.83785 9.08916 2.54531 8.29261 3.99977C7.49308 5.45978 6.67035 6.90627 5.87235 8.3672C5.4393 9.15992 4.81172 9.6652 3.95299 9.87646C3.39622 10.0134 2.83855 10.1488 2.28934 10.3134C2.05792 10.3828 1.84711 10.5253 1.62703 10.6345C1.63945 10.6677 1.65186 10.7009 1.66428 10.7343C1.98675 10.7343 2.3095 10.728 2.63188 10.7358C3.08329 10.7469 3.30931 11.0451 3.20331 11.4958C3.04235 12.1806 2.87418 12.8637 2.70323 13.546C2.60534 13.9364 2.4477 14.0605 2.059 14.0653C1.73806 14.0694 1.41703 14.0662 1.08025 14.0662C1.08025 14.6585 1.07314 15.2014 1.08187 15.7439C1.09473 16.5422 1.59932 17.2387 2.36501 17.3411C3.01176 17.4276 3.67821 17.3589 4.33638 17.3589C4.08598 14.6609 6.06832 12.9813 7.94017 12.9323C8.96581 12.9053 9.87024 13.2205 10.6273 13.9316C11.6092 14.854 11.9763 16.024 11.8528 17.3777C15.479 17.3777 19.0824 17.3777 22.6877 17.3777C22.4392 14.6087 24.4841 12.9743 26.3547 12.9229C28.233 12.8713 30.4564 14.4563 30.2223 17.3846C30.8392 17.3846 31.4591 17.4314 32.0691 17.3717C32.7134 17.3088 33.2311 16.9117 33.3582 16.2649C33.4977 15.5559 33.4617 14.8103 33.5031 14.0628C33.2101 14.0628 33.0077 14.0699 32.8058 14.0616C31.4274 14.0049 30.2766 12.8276 30.2319 11.4325C30.2169 10.9639 30.4158 10.7421 30.8648 10.735C31.1429 10.7304 31.4212 10.7341 31.6994 10.7341ZM5.39845 16.8347C5.39548 18.356 6.5936 19.6083 8.06272 19.6194C9.57071 19.6309 10.7947 18.3821 10.7947 16.832C10.7947 15.3184 9.58556 14.0718 8.11212 14.0666C6.6187 14.0611 5.40142 15.3029 5.39845 16.8347ZM26.4457 14.0666C24.9549 14.0692 23.7466 15.3194 23.7512 16.8545C23.7556 18.3721 24.9639 19.6172 26.4348 19.6195C27.9407 19.6218 29.1558 18.3644 29.1475 16.8123C29.1394 15.3008 27.9223 14.0638 26.4457 14.0666ZM31.4419 11.8448C31.6739 12.6487 32.4989 13.1004 33.3504 12.8965C33.221 12.5981 33.1084 12.2993 32.9604 12.02C32.9149 11.9339 32.7756 11.8572 32.6759 11.8526C32.2746 11.8337 31.872 11.8448 31.4419 11.8448ZM1.09437 12.9432C1.32057 12.9432 1.51915 12.9432 1.73887 12.9432C1.82525 12.584 1.91 12.2315 1.99845 11.8641C1.68039 11.8641 1.39462 11.8641 1.09437 11.8641C1.09437 12.2245 1.09437 12.5662 1.09437 12.9432Z" fill="#D81E05"/>
<path fill-rule="evenodd" clip-rule="evenodd" d="M10.9042 8.91691C9.63501 8.91691 8.36563 8.9147 7.09643 8.91867C6.82989 8.91947 6.58181 8.90083 6.43156 8.6392C6.2871 8.38774 6.39723 8.17568 6.52769 7.96071C7.34745 6.60999 8.16169 5.25601 8.98396 3.90688C9.52889 3.0128 10.334 2.5597 11.39 2.55679C12.5145 2.5537 13.6391 2.55493 14.7636 2.5567C15.2673 2.5575 15.4526 2.7373 15.453 3.22998C15.4548 4.90682 15.4551 6.58375 15.4528 8.26059C15.4522 8.731 15.2613 8.91549 14.7789 8.9162C13.4873 8.91832 12.1957 8.91691 10.9042 8.91691ZM14.3704 3.61619C13.3838 3.61619 12.4277 3.62617 11.4721 3.61292C10.7438 3.60276 10.2194 3.90741 9.85241 4.52459C9.25397 5.53124 8.64171 6.52976 8.03622 7.53235C7.98094 7.6238 7.93278 7.71932 7.86787 7.83771C10.0541 7.83771 12.2056 7.83771 14.3704 7.83771C14.3704 6.43266 14.3704 5.0466 14.3704 3.61619Z" fill="#D81E05"/>
<path fill-rule="evenodd" clip-rule="evenodd" d="M17.548 3.62743C17.548 5.04597 17.548 6.42517 17.548 7.8309C19.9205 7.8309 22.2882 7.8309 24.7143 7.8309C24.4819 7.48128 24.2583 7.1466 24.0368 6.81085C23.9617 6.6972 23.8728 6.58691 23.824 6.46424C23.7158 6.19186 23.7933 5.95801 24.0777 5.81069C24.3482 5.67061 24.6388 5.7049 24.799 5.93292C25.3222 6.67776 25.8274 7.434 26.3045 8.20349C26.4832 8.49196 26.2405 8.84069 25.8729 8.90424C25.7543 8.92474 25.6291 8.9174 25.5069 8.91749C22.7398 8.91802 19.9726 8.91811 17.2055 8.91776C16.5342 8.91767 16.3648 8.76327 16.3646 8.15197C16.3642 6.52893 16.364 4.90598 16.3647 3.28302C16.365 2.71971 16.5472 2.55621 17.174 2.55577C18.3738 2.55489 19.5736 2.55436 20.7736 2.55577C22.175 2.55745 23.3452 3.28435 23.8342 4.46392C23.9447 4.73073 23.8784 4.96802 23.5983 5.12718C23.3356 5.27645 23.0185 5.21662 22.8226 4.96996C22.6735 4.78216 22.5529 4.57607 22.4161 4.38005C22.1177 3.95248 21.6863 3.65553 21.1354 3.63856C19.9519 3.60206 18.7662 3.62743 17.548 3.62743Z" fill="#D81E05"/>
<path fill-rule="evenodd" clip-rule="evenodd" d="M7.25515 10.7333C7.10332 10.7331 6.9508 10.7423 6.79981 10.7311C6.54559 10.712 6.3696 10.5293 6.36345 10.2949C6.35699 10.0489 6.53792 9.8482 6.80543 9.83729C7.11805 9.82457 7.43205 9.82457 7.7446 9.83766C7.9989 9.84842 8.17504 10.0378 8.18134 10.2723C8.18787 10.5172 8.00566 10.713 7.73891 10.7314C7.57841 10.7425 7.41648 10.7335 7.25515 10.7333Z" fill="#D81E05"/>
<path fill-rule="evenodd" clip-rule="evenodd" d="M9.99973 16.6327C10.0032 17.392 9.18547 18.0105 8.17956 18.0097C7.18912 18.0089 6.37082 17.4003 6.36334 16.6589C6.35565 15.9033 7.17304 15.2854 8.18411 15.2824C9.17111 15.2795 9.99639 15.8932 9.99973 16.6327ZM8.78487 16.6512C8.78942 16.4079 8.52252 16.1999 8.19685 16.1928C7.87281 16.1858 7.59064 16.3834 7.57658 16.627C7.56181 16.8819 7.84328 17.1013 8.1828 17.0996C8.50846 17.098 8.78042 16.8956 8.78487 16.6512Z" fill="#D81E05"/>
<path fill-rule="evenodd" clip-rule="evenodd" d="M28.0817 16.5282C28.0874 17.2876 27.2717 17.9079 26.2662 17.9086C25.2752 17.9094 24.4551 17.3025 24.4454 16.5612C24.4355 15.8054 25.251 15.1859 26.2616 15.1813C27.2491 15.1768 28.0763 15.7889 28.0817 16.5282ZM26.2736 16.9985C26.5993 16.9933 26.8674 16.7876 26.867 16.5436C26.8664 16.2888 26.5716 16.0787 26.2328 16.0917C25.9082 16.1042 25.6472 16.3175 25.6588 16.5606C25.6706 16.8054 25.949 17.0038 26.2736 16.9985Z" fill="#D81E05"/>
</svg>
