<svg width="17" height="20" viewBox="0 0 17 20" fill="none" xmlns="http://www.w3.org/2000/svg">
<path d="M6.67857 1.25H10.3214C10.4825 1.25 10.6369 1.31585 10.7507 1.43306C10.8646 1.55027 10.9286 1.70924 10.9286 1.875V3.125H6.07143V1.875C6.07143 1.70924 6.1354 1.55027 6.24926 1.43306C6.36312 1.31585 6.51755 1.25 6.67857 1.25ZM12.1429 3.125V1.875C12.1429 1.37772 11.951 0.900805 11.6094 0.549175C11.2678 0.197544 10.8045 0 10.3214 0L6.67857 0C6.1955 0 5.73221 0.197544 5.39063 0.549175C5.04904 0.900805 4.85714 1.37772 4.85714 1.875V3.125H1.82871C1.82467 3.12496 1.82062 3.12496 1.81657 3.125H0.607143C0.446119 3.125 0.291689 3.19085 0.177828 3.30806C0.0639666 3.42527 0 3.58424 0 3.75C0 3.91576 0.0639666 4.07473 0.177828 4.19194C0.291689 4.30915 0.446119 4.375 0.607143 4.375H1.26043L2.29621 17.7C2.34506 18.3265 2.62134 18.9111 3.07005 19.3373C3.51875 19.7635 4.10695 20.0001 4.7175 20H12.2825C12.8931 20.0001 13.4812 19.7635 13.93 19.3373C14.3787 18.9111 14.6549 18.3265 14.7038 17.7L15.7396 4.375H16.3929C16.5539 4.375 16.7083 4.30915 16.8222 4.19194C16.936 4.07473 17 3.91576 17 3.75C17 3.58424 16.936 3.42527 16.8222 3.30806C16.7083 3.19085 16.5539 3.125 16.3929 3.125H15.1846C15.1806 3.12496 15.1765 3.12496 15.1725 3.125H12.1429ZM14.5204 4.375L13.4931 17.6C13.4687 17.9132 13.3306 18.2055 13.1062 18.4186C12.8819 18.6318 12.5878 18.7501 12.2825 18.75H4.7175C4.41222 18.7501 4.11813 18.6318 3.89377 18.4186C3.66942 18.2055 3.53128 17.9132 3.50686 17.6L2.47957 4.375H14.5204ZM5.42907 5.625C5.58976 5.61544 5.74756 5.67195 5.86779 5.78212C5.98802 5.89229 6.06083 6.04709 6.07021 6.2125L6.67736 16.8375C6.68374 17.001 6.62759 17.1605 6.52098 17.2818C6.41437 17.4032 6.26578 17.4766 6.10714 17.4865C5.94849 17.4963 5.79243 17.4417 5.67247 17.3344C5.5525 17.227 5.47819 17.0756 5.4655 16.9125L4.85714 6.2875C4.85221 6.20539 4.86308 6.12309 4.88912 6.04531C4.91515 5.96754 4.95585 5.89581 5.00887 5.83426C5.06189 5.77271 5.1262 5.72255 5.1981 5.68664C5.27 5.65072 5.34808 5.62978 5.42786 5.625H5.42907ZM11.5709 5.625C11.6507 5.62978 11.7288 5.65072 11.8007 5.68664C11.8726 5.72255 11.9369 5.77271 11.9899 5.83426C12.0429 5.89581 12.0836 5.96754 12.1097 6.04531C12.1357 6.12309 12.1466 6.20539 12.1416 6.2875L11.5345 16.9125C11.5313 16.9956 11.512 17.0771 11.4777 17.1524C11.4435 17.2277 11.395 17.2952 11.3351 17.3509C11.2752 17.4067 11.2052 17.4496 11.129 17.4771C11.0528 17.5047 10.972 17.5163 10.8914 17.5113C10.8108 17.5063 10.732 17.4848 10.6595 17.4481C10.5871 17.4113 10.5225 17.3601 10.4696 17.2974C10.4166 17.2346 10.3763 17.1616 10.3511 17.0827C10.3259 17.0037 10.3162 16.9204 10.3226 16.8375L10.9298 6.2125C10.9392 6.04709 11.012 5.89229 11.1322 5.78212C11.2524 5.67195 11.4102 5.61544 11.5709 5.625ZM8.5 5.625C8.66102 5.625 8.81545 5.69085 8.92932 5.80806C9.04318 5.92527 9.10714 6.08424 9.10714 6.25V16.875C9.10714 17.0408 9.04318 17.1997 8.92932 17.3169C8.81545 17.4342 8.66102 17.5 8.5 17.5C8.33898 17.5 8.18455 17.4342 8.07069 17.3169C7.95682 17.1997 7.89286 17.0408 7.89286 16.875V6.25C7.89286 6.08424 7.95682 5.92527 8.07069 5.80806C8.18455 5.69085 8.33898 5.625 8.5 5.625Z" fill="#D81E05"/>
</svg>
