<svg width="91" height="71" viewBox="0 0 91 71" fill="none" xmlns="http://www.w3.org/2000/svg">
<path fill-rule="evenodd" clip-rule="evenodd" d="M0.197656 43.8449C0.591011 42.3262 0.831379 40.7418 1.41049 39.2886C3.62857 33.7488 7.71506 30.307 13.528 28.9412C14.2054 28.7773 14.3912 28.5041 14.4786 27.8485C15.8553 16.6925 21.5262 8.46482 31.5022 3.26379C36.2552 0.783467 41.3907 -0.221772 46.7338 0.0404651C53.3006 0.368261 59.2118 2.56449 64.402 6.64009C69.6685 10.7812 73.2088 16.0806 75.0445 22.5163C75.2521 23.2375 75.6126 23.5434 76.301 23.7511C85.7306 26.4608 91.7839 36.1199 90.1012 45.768C88.6808 53.952 82.9006 60.0272 74.7604 61.8956C74.072 62.0486 73.3727 62.2015 72.6734 62.2015C68.3027 62.2343 63.9321 62.2125 59.4959 62.2125C59.4959 60.4533 59.4959 58.6286 59.4959 56.6946C59.8347 56.6946 60.1406 56.6946 60.4575 56.6946C63.7792 56.6946 67.0899 56.7055 70.4116 56.6946C77.481 56.6727 83.0973 52.0617 84.4959 45.1561C85.9819 37.8354 80.9229 30.2196 73.5693 28.8865C71.4824 28.5041 70.4881 27.477 69.9527 25.4447C67.1992 15.0098 60.4357 8.60686 49.9134 6.3997C39.8719 4.29088 29.153 9.19689 23.8099 17.9709C21.5262 21.7296 20.2151 25.7834 20.0621 30.1868C20.0512 30.5036 20.0184 30.8314 19.9856 31.1483C19.8108 33.1806 18.8492 34.0657 16.8388 34.164C12.6867 34.3826 9.4961 36.262 7.39821 39.8459C3.18056 47.0683 8.32696 56.4214 16.6858 56.6508C21.1438 56.771 25.6128 56.6836 30.0708 56.6836C30.4204 56.6836 30.7701 56.6836 31.1744 56.6836C31.1744 58.5739 31.1744 60.3987 31.1744 62.3217C30.8684 62.3217 30.5843 62.3217 30.2893 62.3217C26.0389 62.3217 21.7775 62.3327 17.5162 62.3217C8.85145 62.2999 2.17534 56.8366 0.448945 48.3576C0.361532 47.9096 0.263194 47.4507 0.175781 47.0027C0.197634 45.9538 0.197656 44.8939 0.197656 43.8449Z" fill="#9E9E9E"/>
<path fill-rule="evenodd" clip-rule="evenodd" d="M48.1866 70.757C46.2308 70.757 44.4388 70.757 42.5485 70.757C42.5485 61.83 42.5485 52.9358 42.5485 43.8996C40.3632 46.1176 38.309 48.2265 36.2876 50.2806C34.7907 48.7837 33.4904 47.4835 32.1465 46.1504C33.9494 44.3475 35.7959 42.5119 37.6425 40.6653C39.4454 38.8624 41.2483 37.0486 43.0621 35.2567C44.559 33.7816 46.1106 33.7706 47.5966 35.2567C51.104 38.7531 54.6114 42.2715 58.1188 45.7789C58.2609 45.921 58.3811 46.0739 58.4794 46.1832C57.1682 47.4835 55.8789 48.7619 54.5568 50.084C52.5573 48.0735 50.4812 45.9865 48.4052 43.8996C48.3287 43.9323 48.2631 43.976 48.1866 44.0088C48.1866 52.8921 48.1866 61.7863 48.1866 70.757Z" fill="#9E9E9E"/>
</svg>
