<svg width="25" height="19" viewBox="0 0 25 19" fill="none" xmlns="http://www.w3.org/2000/svg">
<path fill-rule="evenodd" clip-rule="evenodd" d="M0.395996 2.52724C0.498621 2.03515 0.650356 1.56578 0.967875 1.16251C1.54683 0.427121 2.29174 0.0167473 3.23125 0.0101428C4.59916 0.000515892 5.96734 -0.00743186 7.33508 0.011654C8.94764 0.0340421 10.1605 1.28783 10.1732 2.91131C10.1741 3.02828 10.1733 3.14526 10.1733 3.28535C10.2912 3.28535 10.384 3.28535 10.4768 3.28535C12.6908 3.28569 14.9049 3.27813 17.1188 3.28922C18.455 3.29599 19.5774 4.20651 19.8742 5.50715C19.93 5.75185 19.9441 6.00976 19.9481 6.26208C19.9582 6.89566 19.9514 7.52958 19.9514 8.19423C20.0533 8.19423 20.1372 8.19411 20.2212 8.19423C20.9802 8.1954 21.7395 8.18852 22.4984 8.19982C23.4567 8.21404 24.4694 8.78936 24.6699 9.92623C24.6723 9.93944 24.6888 9.95018 24.6987 9.9621C24.6987 10.1527 24.6987 10.3434 24.6987 10.534C24.5757 11.1788 24.2168 11.691 23.8106 12.1866C22.6956 13.5473 21.5961 14.9208 20.4866 16.286C19.5601 17.426 18.3569 18.0041 16.8947 18.0084C13.9454 18.0171 10.9961 18.011 8.04682 18.011C6.47327 18.011 4.89984 18.0094 3.32635 18.0115C2.30127 18.0129 1.50018 17.5838 0.897804 16.7592C0.620143 16.3792 0.494496 15.9408 0.395996 15.4905C0.395996 11.1694 0.395996 6.84831 0.395996 2.52724ZM10.1955 16.369C12.4419 16.369 14.6883 16.3701 16.9347 16.3685C17.8621 16.3678 18.6196 16.0035 19.2039 15.2798C20.3792 13.8242 21.5546 12.3688 22.7275 10.9111C22.8313 10.7821 22.9323 10.6461 23.0077 10.4995C23.1519 10.2192 23.0289 9.95057 22.7257 9.87328C22.5968 9.84048 22.4599 9.82559 22.3266 9.82553C17.7469 9.82318 13.1671 9.81719 8.58737 9.8294C7.74742 9.83164 7.02993 10.1868 6.49524 10.8395C5.27962 12.3235 4.08252 13.8228 2.88018 15.3176C2.79623 15.422 2.72242 15.5367 2.65798 15.6543C2.47101 15.9959 2.62191 16.2968 3.00649 16.3458C3.1628 16.3657 3.32212 16.368 3.48004 16.3681C5.71861 16.3695 7.95707 16.369 10.1955 16.369ZM18.3111 8.19417C18.3162 8.09281 18.3232 8.01557 18.3234 7.93827C18.3244 7.39044 18.3258 6.8426 18.3235 6.29476C18.3198 5.4026 17.8308 4.9165 16.9369 4.91594C15.4661 4.91498 13.9953 4.91571 12.5246 4.91566C11.6231 4.91566 10.7216 4.92008 9.82026 4.91414C9.053 4.90905 8.56646 4.4206 8.54885 3.64961C8.54417 3.4433 8.54835 3.23683 8.54757 3.03041C8.54411 2.13069 8.06728 1.6508 7.16807 1.64918C5.91076 1.64694 4.65351 1.64711 3.39625 1.65052C3.23928 1.65091 3.07723 1.65701 2.92639 1.69541C2.34776 1.84261 2.02283 2.33045 2.02266 3.03584C2.02194 6.51333 2.02227 9.99087 2.02278 13.4683C2.02278 13.5439 2.02958 13.6195 2.03615 13.7566C2.13176 13.6422 2.19101 13.5732 2.24821 13.5026C3.21564 12.3077 4.17818 11.1087 5.15147 9.91873C6.07844 8.78527 7.27153 8.1949 8.74089 8.19439C11.8327 8.19339 14.9245 8.19411 18.0163 8.19411C18.109 8.19417 18.2017 8.19417 18.3111 8.19417Z" fill="white"/>
</svg>
