<svg width="139" height="30" viewBox="0 0 139 30" fill="none" xmlns="http://www.w3.org/2000/svg">
<path fill-rule="evenodd" clip-rule="evenodd" d="M42.1574 7.23354L45.7164 14.8264L49.2755 7.23354H54.6565V22.4193H49.2755V14.8264L45.7164 22.4193L42.1574 14.8264V22.4193H36.7756V7.23354H42.1574Z" fill="white"/>
<path fill-rule="evenodd" clip-rule="evenodd" d="M56.3831 22.4207L60.5686 7.23354H70.0777L74.2626 22.4207H68.8808L68.1947 19.9278H62.4503L61.7641 22.4207H56.3831ZM65.3232 9.50854L63.1385 17.4364H67.5078L65.3232 9.50854Z" fill="white"/>
<path fill-rule="evenodd" clip-rule="evenodd" d="M86.0503 7.24228C88.3967 7.24228 90.2983 9.22299 90.2983 11.668C90.2983 14.113 88.3967 16.0944 86.0503 16.0944H81.3588V22.4201H75.9778V7.24156H86.0503V7.24228ZM82.6174 8.98085C83.83 8.98085 85.0091 9.65728 85.0091 11.033C85.0091 12.4094 83.9685 13.5244 82.6174 13.5244H81.4507V8.98085H82.6174Z" fill="white"/>
<path fill-rule="evenodd" clip-rule="evenodd" d="M92.1648 7.23354H106.472V9.72711L97.5459 9.72639V13.5885H106.472V16.08H97.5459V22.4207H92.1648V7.23354Z" fill="white"/>
<path fill-rule="evenodd" clip-rule="evenodd" d="M130.074 19.9278H139V22.4207H124.693V7.23354H139V9.72711H130.074V13.5885H139V16.08H130.074V19.9278Z" fill="white"/>
<path fill-rule="evenodd" clip-rule="evenodd" d="M122.673 18.6248V22.4198H117.381V18.7477C117.383 18.707 117.383 18.6655 117.383 18.6248C117.383 17.2491 116.311 16.1334 114.992 16.1334H113.826V22.4198L108.355 22.4213V7.23912H119.031C121.042 7.23912 122.673 8.93841 122.673 11.0341C122.673 13.1313 121.042 14.8298 119.031 14.8298C121.002 14.8298 122.609 16.4606 122.673 18.5006C122.674 18.5413 122.673 18.5827 122.673 18.6248ZM122.673 18.5006V18.6248C122.673 18.5827 122.674 18.5413 122.673 18.5006ZM114.992 8.98198C116.175 8.98198 117.383 9.65841 117.383 11.0341C117.383 12.4113 116.313 13.5255 114.992 13.5255H113.826V8.98198H114.992Z" fill="white"/>
<path fill-rule="evenodd" clip-rule="evenodd" d="M17.9153 9.63503C18.2368 9.77575 18.4623 10.1072 18.4623 10.4936C18.4623 10.6965 18.3999 10.8843 18.2943 11.0372L15.3139 16.3843C15.2412 16.5365 15.0904 16.64 14.9156 16.64C14.7374 16.64 14.5845 16.5315 14.5139 16.3729L11.5348 11.0293C11.434 10.8786 11.3744 10.695 11.3744 10.4979C11.3744 10.125 11.5855 9.80432 11.8878 9.65503C11.907 9.64003 11.9317 9.62789 11.9653 9.61432C12.8866 9.26789 13.8798 9.07789 14.9163 9.07789C15.9582 9.07789 16.957 9.26932 17.881 9.62003C17.894 9.62503 17.9043 9.62932 17.9153 9.63503ZM9.15409 11.3886C9.3803 11.21 9.69562 11.1793 9.95679 11.3365C10.0939 11.4186 10.1953 11.5407 10.2557 11.6807L12.6583 16.0407C12.7309 16.1557 12.7405 16.3093 12.6699 16.4372C12.5973 16.5686 12.4609 16.6365 12.3258 16.625L7.50207 16.6372C7.35949 16.6507 7.21142 16.62 7.07844 16.5393C6.82618 16.3872 6.69457 16.1029 6.71719 15.82C6.71513 15.8 6.7165 15.775 6.72198 15.7457C6.86182 14.9286 7.13739 14.1229 7.55896 13.3622C7.98259 12.5979 8.51727 11.9436 9.13078 11.4065C9.13832 11.3993 9.14586 11.3943 9.15409 11.3886ZM20.6778 11.3886C20.4523 11.21 20.1362 11.1793 19.8758 11.3365C19.7387 11.4186 19.6365 11.5407 19.5762 11.6807L17.175 16.0407C17.1009 16.1557 17.092 16.3093 17.1626 16.4372C17.2353 16.5686 17.371 16.6365 17.5067 16.625L22.3305 16.6372C22.4731 16.6507 22.6211 16.62 22.7548 16.5393C23.0057 16.3872 23.138 16.1029 23.1154 15.82C23.1174 15.8 23.1161 15.775 23.1106 15.7457C22.9707 14.9286 22.6959 14.1229 22.2736 13.3622C21.8506 12.5979 21.3146 11.9436 20.7018 11.4065C20.6935 11.3993 20.686 11.3943 20.6778 11.3886ZM15.6312 18.13V22.7843H14.202V18.13C13.5186 18.1293 12.6268 18.1265 12.2902 18.1143L7.54868 18.1272C7.14699 18.1479 6.73432 18.0529 6.36279 17.8286C5.64166 17.3957 5.25505 16.595 5.28589 15.7907C5.28726 15.6715 5.2996 15.5672 5.31331 15.4843C5.48194 14.5 5.8144 13.53 6.32098 12.6172C6.82823 11.7007 7.47259 10.9122 8.21154 10.2657C8.70715 9.88432 9.40086 9.69289 10.0404 9.81003C10.2207 9.1736 10.6443 8.64932 11.1961 8.34932C11.2997 8.28718 11.3984 8.24432 11.4793 8.21361C12.5541 7.80932 13.7126 7.58789 14.917 7.58789C16.1282 7.58789 17.2915 7.81075 18.3704 8.21932C18.9915 8.50218 19.546 9.09003 19.7784 9.79146C20.3885 9.64575 21.0192 9.78718 21.5154 10.1807C22.2544 10.8272 23.005 11.7007 23.5123 12.6172C24.0182 13.5293 24.3513 14.5 24.5192 15.4843C24.5336 15.5672 24.5467 15.6715 24.5473 15.7907C24.5782 16.595 24.1909 17.395 23.4704 17.8286C23.0989 18.0522 22.6863 18.1479 22.2846 18.1272L17.5431 18.1143C17.2051 18.1265 16.314 18.1293 15.6312 18.13Z" fill="white"/>
<path d="M28.4759 15C28.4759 22.7487 22.3086 29 14.7379 29C7.16723 29 1 22.7487 1 15C1 7.25132 7.16723 1 14.7379 1C22.3086 1 28.4759 7.25132 28.4759 15Z" stroke="white" stroke-width="2"/>
</svg>
