<svg width="16" height="16" viewBox="0 0 16 16" fill="none" xmlns="http://www.w3.org/2000/svg">
<path d="M3.48889 12.4667H9.6V11.1333H3.48889V12.4667ZM3.48889 8.66667H12.5111V7.33333H3.48889V8.66667ZM3.48889 4.86667H12.5111V3.53333H3.48889V4.86667ZM1.33333 16C0.977778 16 0.666667 15.8667 0.4 15.6C0.133333 15.3333 0 15.0222 0 14.6667V1.33333C0 0.977778 0.133333 0.666667 0.4 0.4C0.666667 0.133333 0.977778 0 1.33333 0H14.6667C15.0222 0 15.3333 0.133333 15.6 0.4C15.8667 0.666667 16 0.977778 16 1.33333V14.6667C16 15.0222 15.8667 15.3333 15.6 15.6C15.3333 15.8667 15.0222 16 14.6667 16H1.33333ZM1.33333 14.6667H14.6667V1.33333H1.33333V14.6667Z" fill="#D81E05"/>
</svg>
