<svg width="24" height="24" viewBox="0 0 24 24" fill="none" xmlns="http://www.w3.org/2000/svg">
<path d="M23.7742 13.3417C23.5949 13.9794 23.4757 14.6291 23.2557 15.2594C22.9147 16.2372 22.4498 17.1466 21.8574 17.983C20.3149 20.1586 18.2494 21.6382 15.7051 22.4238C14.6515 22.7491 13.5674 22.9579 12.451 22.8794C12.4491 19.5902 12.4473 16.3 12.4445 13.0108C12.5665 13.0395 12.6247 13.1476 12.7033 13.2262C13.2347 13.752 13.7698 14.2761 14.2873 14.8158C14.4583 14.9942 14.56 15.0293 14.7439 14.8259C15.0747 14.459 15.426 14.1078 15.7929 13.777C15.999 13.5912 15.9546 13.4896 15.7799 13.3204C15.2162 12.7779 14.6755 12.2114 14.1127 11.668C13.9556 11.5164 13.9666 11.4332 14.1173 11.2872C14.6949 10.7262 15.2559 10.1477 15.8326 9.58483C15.9703 9.45082 15.986 9.36487 15.8363 9.22994C15.4537 8.88521 15.0747 8.53495 14.7115 8.16897C14.5433 7.99984 14.4361 7.99429 14.2624 8.16619C13.6912 8.72995 13.1034 9.27615 12.5231 9.82974C12.3863 9.7096 12.4491 9.54879 12.4482 9.40831C12.4445 6.27252 12.4454 3.13672 12.4454 0C12.8142 0 13.1829 0 13.5517 0C13.8345 0.155265 14.157 0.146023 14.4611 0.199627C15.8511 0.445463 17.1579 0.912181 18.3538 1.66078C19.3325 2.2726 20.2234 2.98793 20.9896 3.86591C21.8833 4.889 22.5958 6.00912 23.106 7.2688C23.4396 8.09503 23.6254 8.95545 23.8103 9.81958C23.8093 10.1227 23.8518 10.2188 23.9932 10.2345C23.9932 10.2808 23.9932 10.327 23.9932 10.3732C23.8611 10.4046 23.8361 10.4083 23.8602 10.5488C23.9313 10.9776 23.923 11.4083 23.923 11.8389C23.923 12.0663 23.8093 12.2807 23.8583 12.5118C23.8749 12.5894 23.8768 12.692 23.9932 12.5857C23.9932 12.6319 23.9932 12.6781 23.9932 12.7243C23.9701 12.6772 23.899 12.655 23.8916 12.6883C23.8592 12.8371 23.7502 12.9739 23.8084 13.1393C23.7964 13.2058 23.7853 13.2742 23.7742 13.3417Z" fill="#FF3377"/>
<path d="M12.4452 0C12.4452 3.1358 12.4443 6.27159 12.448 9.40831C12.448 9.54971 12.3861 9.7096 12.5219 9.82975C12.497 9.87503 12.4711 9.92124 12.4462 9.96653C11.8223 9.37411 11.1911 8.78818 10.5774 8.1856C10.3991 8.01 10.2798 7.98597 10.1005 8.18006C9.78078 8.52663 9.44899 8.86396 9.10519 9.18558C8.93144 9.34824 8.92128 9.44805 9.09965 9.61995C9.65602 10.1532 10.1865 10.7142 10.7438 11.2475C10.9296 11.4258 10.936 11.5293 10.7466 11.7105C10.181 12.2511 9.64031 12.8186 9.07839 13.3629C8.92498 13.5117 8.92313 13.6005 9.07932 13.7465C9.44807 14.094 9.80851 14.4507 10.1532 14.8213C10.3177 14.9978 10.4176 14.9969 10.5876 14.8232C11.1985 14.1984 11.8269 13.5894 12.4489 12.9748C12.4517 12.9877 12.4508 12.9997 12.4452 13.0108C12.4471 16.3 12.4489 19.5902 12.4517 22.8794C12.0839 22.8831 11.717 22.8868 11.3491 22.8905C10.9748 22.7528 10.5737 22.7629 10.1893 22.6835C8.83995 22.4062 7.57935 21.9034 6.41856 21.1687C5.26054 20.4358 4.23746 19.5495 3.40568 18.4442C2.5277 17.2769 1.87429 16.0061 1.45101 14.6088C1.25046 13.9452 1.20702 13.252 1.02588 12.5866C1.0305 12.046 1.04344 11.5053 1.03974 10.9647C1.03327 10.1125 1.19685 9.2817 1.41311 8.47025C1.9399 6.49062 2.98609 4.78456 4.40381 3.32988C5.30305 2.40753 6.37975 1.68851 7.54423 1.11643C8.32425 0.732889 9.15048 0.470415 9.97856 0.236594C10.3584 0.129387 10.7882 0.138628 11.193 0.071162C11.2503 0.0619201 11.3076 0.0582252 11.3399 0.000925098C11.7077 9.02555e-07 12.0765 0 12.4452 0Z" fill="#FF80AA"/>
<path d="M23.9924 12.5858C23.876 12.6921 23.8741 12.5904 23.8575 12.5119C23.8085 12.2808 23.9222 12.0655 23.9222 11.8391C23.9212 11.4075 23.9305 10.9777 23.8593 10.5489C23.8362 10.4084 23.8612 10.4038 23.9924 10.3733C23.9924 11.1099 23.9924 11.8474 23.9924 12.5858Z" fill="white"/>
<path d="M23.8101 9.8186C23.8711 9.8186 23.9321 9.8186 23.9931 9.8186C23.9931 9.95723 23.9931 10.0949 23.9931 10.2336C23.8517 10.2179 23.8091 10.1217 23.8101 9.8186Z" fill="white"/>
<path d="M23.8087 13.1383C23.7505 12.9729 23.8605 12.8361 23.8919 12.6873C23.8993 12.654 23.9695 12.6762 23.9936 12.7233C23.9936 12.862 23.9936 12.9997 23.9936 13.1383C23.9326 13.1383 23.8706 13.1383 23.8087 13.1383Z" fill="white"/>
<path d="M23.8082 13.1382C23.8701 13.1382 23.9311 13.1382 23.993 13.1382C23.993 13.2075 23.993 13.2768 23.993 13.3452C23.92 13.3443 23.8479 13.3424 23.7749 13.3415C23.786 13.274 23.7971 13.2056 23.8082 13.1382Z" fill="white"/>
<path d="M0.145094 23.3072C0.113671 23.37 0.0711631 23.4227 0 23.443C0.00184839 23.3968 0.00369092 23.3497 0.00553931 23.3035C0.0517491 23.3053 0.098884 23.3062 0.145094 23.3072Z" fill="#27BFA7"/>
<path d="M12.4471 9.96567C12.4721 9.92038 12.4979 9.87417 12.5229 9.82889C13.1042 9.2753 13.692 8.7291 14.2622 8.16534C14.436 7.99344 14.5432 7.99898 14.7114 8.16811C15.0746 8.53317 15.4535 8.88344 15.8361 9.22909C15.9859 9.36402 15.9701 9.44904 15.8324 9.58398C15.2557 10.1468 14.6957 10.7254 14.1171 11.2863C13.9665 11.4324 13.9554 11.5155 14.1125 11.6671C14.6753 12.2105 15.2169 12.7771 15.7798 13.3196C15.9554 13.4887 15.9997 13.5904 15.7927 13.7761C15.4258 14.107 15.0746 14.4582 14.7437 14.8251C14.5598 15.0284 14.4582 14.9933 14.2872 14.8149C13.7696 14.2752 13.2345 13.7512 12.7031 13.2253C12.6236 13.1468 12.5663 13.0386 12.4443 13.01C12.4499 12.998 12.4508 12.9859 12.448 12.9739C12.448 11.9712 12.448 10.9684 12.4471 9.96567Z" fill="#DFE6F4"/>
<path d="M12.4464 9.96567C12.4473 10.9684 12.4473 11.9712 12.4482 12.9739C11.8263 13.5885 11.1978 14.1966 10.5869 14.8223C10.4169 14.9961 10.318 14.9979 10.1525 14.8205C9.80781 14.4499 9.44737 14.0931 9.07862 13.7456C8.92336 13.5987 8.92428 13.5109 9.0777 13.3621C9.63961 12.8177 10.1803 12.2503 10.7459 11.7096C10.9353 11.5285 10.9298 11.425 10.7431 11.2466C10.1858 10.7133 9.65532 10.1533 9.09895 9.6191C8.92058 9.4472 8.93074 9.34739 9.10449 9.18473C9.44921 8.86218 9.781 8.52578 10.0998 8.1792C10.2782 7.98512 10.3974 8.01008 10.5767 8.18475C11.1913 8.78732 11.8226 9.37327 12.4464 9.96567Z" fill="#F0F5FE"/>
</svg>
