<svg width="24" height="24" viewBox="0 0 24 24" fill="none" xmlns="http://www.w3.org/2000/svg">
<path fill-rule="evenodd" clip-rule="evenodd" d="M11.7664 23.2416C11.46 23.2416 11.1536 23.2416 10.8472 23.2416C10.8189 23.1748 10.7569 23.1988 10.708 23.1943C10.2662 23.1527 9.82659 23.0923 9.39269 23.0025C4.55269 22.0012 0.839896 18.1002 0.12248 13.2733C0.0855405 13.0248 0.102201 12.7668 0 12.5287C0 11.9234 0 11.3181 0 10.7129C0.067674 10.685 0.043316 10.6237 0.0479119 10.5756C0.089964 10.1392 0.151089 9.70501 0.241973 9.27648C1.25594 4.49627 5.20582 0.829501 10.0931 0.120964C10.3447 0.084539 10.606 0.100936 10.8471 0C11.1535 0 11.4599 0 11.7664 0C11.7664 3.84243 11.7662 7.68485 11.7668 11.5272C11.7668 11.6557 11.7727 11.7842 11.7758 11.9127C11.771 11.9311 11.7662 11.9495 11.7613 11.9679C11.3732 12.31 10.9773 12.6439 10.601 12.9982C10.4569 13.1339 10.3854 13.1085 10.2584 12.9817C9.27276 11.9981 8.27768 11.0236 7.29042 10.0416C7.18059 9.93236 7.11865 9.89526 6.98849 10.0278C6.43944 10.5869 5.87983 11.136 5.31675 11.6813C5.20717 11.7874 5.2171 11.8443 5.32046 11.946C6.953 13.5528 8.58303 15.1621 10.208 16.7762C10.328 16.8953 10.3896 16.8711 10.4985 16.7714C10.9137 16.3915 11.3382 16.0215 11.7592 15.6478C11.7615 15.7687 11.7659 15.8895 11.7659 16.0103C11.7665 18.4206 11.7664 20.8311 11.7664 23.2416Z" fill="#02C644"/>
<path fill-rule="evenodd" clip-rule="evenodd" d="M11.7927 11.9126C11.7896 11.7841 11.7838 11.6557 11.7838 11.5272C11.7833 7.68481 11.7834 3.8424 11.7834 0C12.0861 0 12.3888 0 12.6916 0C12.7051 0.0482833 12.7452 0.0439143 12.782 0.0449357C13.1755 0.0559996 13.5636 0.120055 13.947 0.197275C16.7539 0.762489 19.0653 2.1576 20.8617 4.38505C22.1611 5.99608 22.9653 7.8322 23.2823 9.88127C23.3251 10.1583 23.3136 10.444 23.4085 10.713C23.4085 11.3334 23.4085 11.9537 23.4085 12.5741C23.3602 12.5874 23.3652 12.6276 23.3633 12.6643C23.3438 13.0416 23.286 13.4149 23.2116 13.7837C22.6454 16.5893 21.2501 18.8999 19.022 20.6957C17.4103 21.9946 15.5734 22.7985 13.5236 23.1154C13.2464 23.1582 12.9606 23.1467 12.6916 23.2416C12.3888 23.2416 12.0861 23.2416 11.7834 23.2416C11.7834 20.8312 11.7835 18.4207 11.7831 16.0103C11.7831 15.8894 11.7787 15.7686 11.7764 15.6477C11.7772 15.6362 11.78 15.6252 11.7846 15.6146C12.0273 15.4 12.2726 15.188 12.5125 14.9702C14.5724 13.101 16.63 11.2293 18.6933 9.3637C18.8243 9.24529 18.8106 9.18465 18.6995 9.06494C18.1752 8.49987 17.6574 7.92851 17.147 7.35072C17.0372 7.22653 16.9797 7.21212 16.8502 7.3312C15.9156 8.19089 14.9733 9.04216 14.0317 9.89416C13.2866 10.5683 12.5392 11.2398 11.7927 11.9126Z" fill="#07A839"/>
<path fill-rule="evenodd" clip-rule="evenodd" d="M11.7907 11.8818C12.5401 11.2167 13.2905 10.5528 14.0386 9.88625C14.984 9.04393 15.93 8.20233 16.8683 7.35253C16.9983 7.23472 17.0562 7.24896 17.1663 7.3718C17.6787 7.94304 18.1986 8.50785 18.7251 9.06649C18.8367 9.18481 18.8503 9.24478 18.7188 9.36183C16.6473 11.2062 14.5814 13.0565 12.5133 14.9045C12.2723 15.1198 12.0262 15.3293 11.7824 15.5415C11.7804 14.3398 11.7784 13.138 11.7764 11.9363C11.7811 11.9181 11.786 11.8999 11.7907 11.8818Z" fill="#D2D2D6"/>
<path fill-rule="evenodd" clip-rule="evenodd" d="M11.7697 11.9861C11.7717 13.1896 11.7737 14.393 11.7758 15.5964C11.7712 15.6069 11.7684 15.6178 11.7675 15.6292C11.3415 15.9992 10.912 16.3655 10.4919 16.7417C10.3817 16.8403 10.3194 16.8643 10.198 16.7463C8.5538 15.1483 6.90457 13.5551 5.25269 11.9644C5.14814 11.8637 5.138 11.8074 5.24893 11.7023C5.81868 11.1625 6.38489 10.6189 6.94041 10.0654C7.07212 9.93411 7.13479 9.97087 7.24593 10.0791C8.24485 11.0513 9.25168 12.016 10.249 12.9898C10.3775 13.1153 10.4498 13.1405 10.5956 13.0061C10.9764 12.6553 11.377 12.3248 11.7697 11.9861Z" fill="#E6E6E5"/>
</svg>
