<svg width="161" height="33" viewBox="0 0 161 33" fill="none" xmlns="http://www.w3.org/2000/svg">
<path fill-rule="evenodd" clip-rule="evenodd" d="M48.8297 7.95703L52.9521 16.3092L57.0744 7.95703H63.3071V24.6613H57.0744V16.3092L52.9521 24.6613L48.8297 16.3092V24.6613H42.5962V7.95703H48.8297Z" fill="#BE1F24"/>
<path fill-rule="evenodd" clip-rule="evenodd" d="M65.3071 24.6629L70.1552 7.95703H81.1693L86.0165 24.6629H79.783L78.9882 21.9207H72.3346L71.5399 24.6629H65.3071ZM75.6622 10.4595L73.1318 19.1802H78.1926L75.6622 10.4595Z" fill="#BE1F24"/>
<path fill-rule="evenodd" clip-rule="evenodd" d="M99.6698 7.96661C102.388 7.96661 104.59 10.1454 104.59 12.8349C104.59 15.5244 102.388 17.704 99.6698 17.704H94.2358V24.6622H88.0031V7.96582H99.6698V7.96661ZM95.6935 9.87903C97.0981 9.87903 98.4637 10.6231 98.4637 12.1364C98.4637 13.6505 97.2585 14.877 95.6935 14.877H94.3422V9.87903H95.6935Z" fill="#BE1F24"/>
<path fill-rule="evenodd" clip-rule="evenodd" d="M106.752 7.95703H123.323V10.7L112.985 10.6992V14.9475H123.323V17.6881H112.985V24.6629H106.752V7.95703Z" fill="#BE1F24"/>
<path fill-rule="evenodd" clip-rule="evenodd" d="M150.661 21.9207H161V24.6629H144.428V7.95703H161V10.7H150.661V14.9475H161V17.6881H150.661V21.9207Z" fill="#BE1F24"/>
<path fill-rule="evenodd" clip-rule="evenodd" d="M142.088 20.4872V24.6617H135.959V20.6223C135.961 20.5775 135.962 20.532 135.962 20.4872C135.962 18.9739 134.72 17.7466 133.192 17.7466H131.841V24.6617L125.505 24.6632V7.96289H137.87C140.2 7.96289 142.088 9.8321 142.088 12.1374C142.088 14.4442 140.199 16.3127 137.87 16.3127C140.153 16.3127 142.015 18.1065 142.088 20.3505C142.09 20.3952 142.088 20.4408 142.088 20.4872ZM142.088 20.3505V20.4872C142.088 20.4408 142.09 20.3952 142.088 20.3505ZM133.192 9.88003C134.563 9.88003 135.962 10.6241 135.962 12.1374C135.962 13.6522 134.722 14.878 133.192 14.878H131.841V9.88003H133.192Z" fill="#BE1F24"/>
<path fill-rule="evenodd" clip-rule="evenodd" d="M20.7506 10.5985C21.123 10.7533 21.3842 11.1179 21.3842 11.543C21.3842 11.7661 21.312 11.9728 21.1897 12.1409L17.7375 18.0228C17.6533 18.1901 17.4786 18.304 17.2762 18.304C17.0697 18.304 16.8927 18.1846 16.8109 18.0102L13.3603 12.1323C13.2435 11.9665 13.1745 11.7645 13.1745 11.5477C13.1745 11.1375 13.419 10.7848 13.7692 10.6205C13.7914 10.604 13.82 10.5907 13.8589 10.5758C14.926 10.1947 16.0765 9.98568 17.277 9.98568C18.4838 9.98568 19.6406 10.1963 20.7109 10.582C20.726 10.5875 20.7379 10.5923 20.7506 10.5985ZM10.6028 12.5275C10.8648 12.331 11.23 12.2973 11.5325 12.4701C11.6913 12.5605 11.8088 12.6948 11.8787 12.8488L14.6616 17.6448C14.7458 17.7713 14.7569 17.9403 14.6751 18.0809C14.5909 18.2255 14.4329 18.3001 14.2765 18.2875L8.68928 18.3009C8.52413 18.3158 8.35263 18.282 8.1986 18.1933C7.90642 18.0259 7.75397 17.7132 7.78017 17.402C7.77779 17.38 7.77938 17.3525 7.78573 17.3203C7.9477 16.4215 8.26688 15.5352 8.75518 14.6984C9.24586 13.8577 9.86516 13.138 10.5758 12.5471C10.5845 12.5393 10.5932 12.5338 10.6028 12.5275ZM23.9504 12.5275C23.6891 12.331 23.3231 12.2973 23.0214 12.4701C22.8626 12.5605 22.7443 12.6948 22.6744 12.8488L19.8931 17.6448C19.8074 17.7713 19.7971 17.9403 19.8788 18.0809C19.963 18.2255 20.1202 18.3001 20.2774 18.2875L25.8646 18.3009C26.0298 18.3158 26.2013 18.282 26.3561 18.1933C26.6467 18.0259 26.8 17.7132 26.7738 17.402C26.7761 17.38 26.7745 17.3525 26.7682 17.3203C26.6062 16.4215 26.2878 15.5352 25.7987 14.6984C25.3089 13.8577 24.688 13.138 23.9781 12.5471C23.9686 12.5393 23.9599 12.5338 23.9504 12.5275ZM18.1051 19.943V25.0627H16.4496V19.943C15.658 19.9423 14.6251 19.9391 14.2352 19.9258L8.74327 19.9399C8.278 19.9627 7.80002 19.8582 7.36969 19.6115C6.53442 19.1353 6.08662 18.2545 6.12235 17.3698C6.12393 17.2386 6.13823 17.1239 6.15411 17.0328C6.34942 15.95 6.7345 14.883 7.32125 13.8789C7.9088 12.8708 8.65514 12.0034 9.51105 11.2923C10.0851 10.8728 10.8886 10.6622 11.6294 10.791C11.8382 10.091 12.3289 9.51425 12.968 9.18425C13.0879 9.11589 13.2023 9.06875 13.2959 9.03497C14.5409 8.59025 15.8827 8.34668 17.2778 8.34668C18.6807 8.34668 20.0281 8.59182 21.2778 9.04125C21.9972 9.35239 22.6395 9.99904 22.9087 10.7706C23.6153 10.6103 24.3458 10.7659 24.9206 11.1988C25.7765 11.9099 26.6459 12.8708 27.2335 13.8789C27.8194 14.8823 28.2053 15.95 28.3998 17.0328C28.4165 17.1239 28.4316 17.2386 28.4324 17.3698C28.4681 18.2545 28.0195 19.1345 27.185 19.6115C26.7547 19.8574 26.2767 19.9627 25.8114 19.9399L20.3195 19.9258C19.9281 19.9391 18.8959 19.9423 18.1051 19.943Z" fill="#BE1F24"/>
<path d="M33.1411 16.5C33.1411 25.0286 25.9784 32 17.0706 32C8.16272 32 1 25.0286 1 16.5C1 7.97136 8.16272 1 17.0706 1C25.9784 1 33.1411 7.97136 33.1411 16.5Z" stroke="#BE1F24" stroke-width="2"/>
</svg>
