<svg width="145" height="145" viewBox="0 0 145 145" fill="none" xmlns="http://www.w3.org/2000/svg">
<path d="M21.8379 120.742L24.2913 136.865H38.5445L41.8525 120.975L21.8379 120.742Z" fill="#EBEBEB"/>
<path d="M39.8586 131.075C39.8586 131.121 36.2063 131.159 31.702 131.159C27.1963 131.159 23.5449 131.121 23.5449 131.075C23.5449 131.029 27.1963 130.991 31.702 130.991C36.2066 130.991 39.8586 131.029 39.8586 131.075Z" fill="#FAFAFA"/>
<path d="M39.9144 130.282C39.9144 130.328 36.2375 130.365 31.7027 130.365C27.1663 130.365 23.4902 130.328 23.4902 130.282C23.4902 130.236 27.1666 130.198 31.7027 130.198C36.2375 130.198 39.9144 130.235 39.9144 130.282Z" fill="#FAFAFA"/>
<path d="M39.8861 129.387C39.8861 129.433 36.2089 129.47 31.6744 129.47C27.138 129.47 23.4619 129.433 23.4619 129.387C23.4619 129.34 27.138 129.303 31.6744 129.303C36.2089 129.303 39.8861 129.34 39.8861 129.387Z" fill="#FAFAFA"/>
<path d="M25.4865 133.917C25.6825 135.046 25.8783 135.955 25.9239 135.947C25.9695 135.939 25.8477 135.017 25.6517 133.888C25.4557 132.759 25.2599 131.85 25.2143 131.858C25.1687 131.866 25.2906 132.788 25.4865 133.917Z" fill="#FAFAFA"/>
<path d="M26.8976 135.773C26.8503 135.774 26.7958 134.886 26.721 133.792C26.6473 132.699 26.5812 131.811 26.6279 131.806C26.6726 131.8 26.8138 132.682 26.8877 133.781C26.9631 134.879 26.9425 135.772 26.8976 135.773Z" fill="#FAFAFA"/>
<path d="M28.6639 135.772C28.6198 135.78 28.4252 134.874 28.2933 133.741C28.1599 132.608 28.1399 131.682 28.1845 131.68C28.2321 131.677 28.3263 132.593 28.4592 133.722C28.5908 134.85 28.7109 135.764 28.6639 135.772Z" fill="#FAFAFA"/>
<path d="M29.9055 135.858C29.8606 135.862 29.7443 134.94 29.7077 133.795C29.67 132.649 29.726 131.722 29.771 131.723C29.8182 131.724 29.8371 132.649 29.8751 133.789C29.9113 134.929 29.9528 135.854 29.9055 135.858Z" fill="#FAFAFA"/>
<path d="M31.9541 133.808C31.9907 134.891 32.0578 135.768 32.1039 135.766C32.15 135.765 32.1577 134.885 32.121 133.802C32.0844 132.719 32.0173 131.842 31.9712 131.844C31.9251 131.845 31.9174 132.725 31.9541 133.808Z" fill="#FAFAFA"/>
<path d="M33.6343 133.838C33.6253 134.957 33.6555 135.864 33.7017 135.864C33.748 135.865 33.7929 134.958 33.802 133.84C33.811 132.721 33.7808 131.814 33.7345 131.814C33.6883 131.813 33.6434 132.72 33.6343 133.838Z" fill="#FAFAFA"/>
<path d="M35.3314 133.519C35.2182 134.684 35.1638 135.632 35.2098 135.636C35.2559 135.641 35.385 134.7 35.4982 133.535C35.6114 132.37 35.6658 131.422 35.6197 131.418C35.5736 131.413 35.4445 132.354 35.3314 133.519Z" fill="#FAFAFA"/>
<path d="M37.1484 135.432C37.1043 135.427 37.1736 134.613 37.3882 133.631C37.6008 132.649 37.8757 131.88 37.9183 131.894C37.9641 131.908 37.7626 132.692 37.5518 133.667C37.3389 134.641 37.1959 135.439 37.1484 135.432Z" fill="#FAFAFA"/>
<path d="M35.7763 88.9287C35.7789 88.9299 35.7731 88.9569 35.7589 89.0082C35.7409 89.0691 35.7192 89.1439 35.6925 89.2358C35.6264 89.4475 35.5359 89.7384 35.4214 90.1061C35.2993 90.4826 35.154 90.9442 35.0029 91.4857C34.8495 92.0259 34.6587 92.637 34.489 93.3237C34.3081 94.0072 34.112 94.7566 33.9337 95.5686C33.7359 96.3765 33.5694 97.2491 33.3838 98.1652C33.0422 100.003 32.7307 102.036 32.5106 104.182C32.3018 106.33 32.2058 108.384 32.1774 110.254C32.1783 111.188 32.169 112.077 32.2032 112.908C32.2177 113.739 32.2618 114.512 32.3042 115.218C32.3346 115.925 32.401 116.562 32.4448 117.122C32.486 117.682 32.537 118.163 32.5826 118.556C32.6223 118.939 32.6533 119.242 32.6762 119.463C32.6843 119.558 32.691 119.636 32.6965 119.699C32.7 119.753 32.7006 119.78 32.6977 119.78C32.6948 119.781 32.6887 119.754 32.6794 119.701C32.6696 119.639 32.6577 119.562 32.6429 119.467C32.6124 119.247 32.5707 118.945 32.5179 118.564C32.4628 118.171 32.4016 117.691 32.3517 117.13C32.2992 116.57 32.2247 115.933 32.1861 115.226C32.1362 114.519 32.0852 113.745 32.0649 112.912C32.0246 112.079 32.0287 111.189 32.0234 110.252C32.0434 108.378 32.1354 106.319 32.3442 104.165C32.5646 102.014 32.8818 99.9766 33.2324 98.1362C33.4227 97.219 33.5947 96.3452 33.7985 95.5373C33.9833 94.7247 34.1863 93.9756 34.3748 93.2927C34.5522 92.6071 34.7512 91.9975 34.9133 91.4587C35.0728 90.9193 35.2276 90.4599 35.3596 90.0864C35.4866 89.7225 35.5872 89.4348 35.6606 89.2254C35.694 89.1352 35.7209 89.0621 35.7427 89.0027C35.7624 88.9531 35.7734 88.9279 35.7763 88.9287Z" fill="#EBEBEB"/>
<path d="M33.2042 98.9118C33.5887 97.7599 34.3874 96.7516 35.4201 96.113C35.7733 95.8946 36.2185 95.7171 36.5923 95.8978C37.0896 96.1379 37.1296 96.8377 36.9812 97.3698C36.7318 98.2648 36.1468 99.062 35.3682 99.5683C34.5895 100.075 33.8666 100.314 32.9473 100.179" fill="#EBEBEB"/>
<path d="M32.3381 105.653C32.7064 104.262 33.8163 102.284 34.969 101.422C35.1511 101.286 35.3463 101.157 35.5673 101.104C35.7886 101.05 36.0426 101.085 36.207 101.242C36.4425 101.468 36.419 101.847 36.35 102.166C35.9095 104.196 34.2182 105.898 32.1914 106.352" fill="#EBEBEB"/>
<path d="M32.0996 111.587C32.6668 110.265 33.5937 109.099 34.754 108.248C35.026 108.049 35.3482 107.858 35.6802 107.918C36.1837 108.01 36.4122 108.625 36.3678 109.134C36.2762 110.184 35.4746 111.026 34.647 111.678C33.7561 112.38 32.1918 112.94 32.1918 112.94" fill="#EBEBEB"/>
<path d="M32.2334 115.852C32.816 114.86 33.5407 113.928 34.4916 113.281C34.6981 113.141 34.9217 113.011 35.1691 112.977C35.4167 112.943 35.6937 113.024 35.8337 113.23C36.0602 113.562 35.8445 114.012 35.6017 114.333C34.7634 115.442 33.706 116.281 32.3793 116.697" fill="#EBEBEB"/>
<path d="M32.122 114.119C31.149 112.927 30.0668 111.824 28.8923 110.83C28.709 110.674 28.4773 110.512 28.2488 110.586C28.0719 110.644 27.9648 110.834 27.9527 111.02C27.9405 111.206 28.0046 111.387 28.0756 111.559C28.7815 113.265 30.4443 114.601 32.2336 115.057" fill="#EBEBEB"/>
<path d="M32.2247 108.569C31.3788 107.538 30.5331 106.507 29.6875 105.476C29.4459 105.182 29.1968 104.881 28.8645 104.695C28.5321 104.509 28.0934 104.463 27.7822 104.682C27.4716 104.901 27.3666 105.33 27.4351 105.704C27.5032 106.077 27.7135 106.408 27.9301 106.72C28.4457 107.462 29.0341 108.171 29.7788 108.684C30.5236 109.196 31.2007 109.529 32.0951 109.397" fill="#EBEBEB"/>
<path d="M32.5772 102.319C32.0848 100.846 31.1936 99.5088 30.0243 98.4863C29.8286 98.3155 29.6143 98.1478 29.3591 98.0983C28.8507 97.9999 28.36 98.4245 28.1953 98.9155C28.01 99.4676 28.1367 100.09 28.427 100.595C28.7173 101.099 29.1569 101.502 29.6195 101.856C30.4721 102.508 31.4288 103.024 32.4418 103.38" fill="#EBEBEB"/>
<path d="M33.5916 96.7473C33.3457 94.9542 32.4128 93.4622 31.3311 92.0113C31.1031 91.7054 30.7853 91.3809 30.408 91.4383C30.1676 91.4748 29.9736 91.6694 29.8782 91.893C29.783 92.1166 29.7714 92.3666 29.7778 92.6096C29.8346 94.7762 31.3293 96.8337 33.3724 97.5579" fill="#EBEBEB"/>
<path d="M34.3007 93.9014C34.2119 92.9795 34.1232 92.051 34.2082 91.129C34.2931 90.2066 34.5637 89.2806 35.1286 88.5469C35.3714 88.2314 35.6759 87.9489 36.0497 87.8123C36.4235 87.6757 36.8744 87.707 37.1798 87.9625C37.4628 88.1986 37.5809 88.5889 37.5667 88.9575C37.5522 89.3261 37.4222 89.679 37.2807 90.0198C36.605 91.6458 35.4775 93.4464 34.3007 93.9014Z" fill="#EBEBEB"/>
<path d="M23.2489 96.0381C23.255 96.0384 23.2593 96.1167 23.2628 96.2655C23.2645 96.4308 23.2671 96.6471 23.27 96.9162C23.2695 97.1987 23.2709 97.5441 23.286 97.9451C23.299 98.3462 23.3019 98.803 23.3353 99.3067C23.3794 100.315 23.4771 101.514 23.6299 102.839C23.7941 104.163 24.02 105.613 24.332 107.121C24.6522 108.628 25.028 110.047 25.4097 111.325C25.8023 112.6 26.1944 113.737 26.5592 114.678C26.7312 115.153 26.9121 115.572 27.0612 115.945C27.2085 116.318 27.3457 116.635 27.46 116.893C27.5652 117.141 27.6499 117.34 27.7146 117.492C27.7711 117.63 27.7984 117.703 27.7932 117.706C27.7879 117.708 27.7505 117.639 27.6841 117.506C27.6119 117.357 27.5177 117.162 27.4005 116.92C27.277 116.665 27.1308 116.352 26.9751 115.981C26.8176 115.612 26.6285 115.194 26.449 114.721C26.0691 113.783 25.6643 112.647 25.2623 111.37C24.8711 110.09 24.4892 108.667 24.1682 107.155C23.855 105.642 23.6331 104.186 23.4768 102.857C23.3318 101.526 23.246 100.323 23.217 99.3113C23.1912 98.8061 23.1967 98.3479 23.1926 97.9463C23.1865 97.5441 23.1941 97.1981 23.2048 96.9153C23.2149 96.6459 23.2231 96.4299 23.2289 96.2643C23.2364 96.1158 23.2431 96.0381 23.2489 96.0381Z" fill="#E0E0E0"/>
<path d="M23.6455 103.389C23.6594 102.522 23.986 101.664 24.5518 101.007C24.7452 100.782 25.0102 100.566 25.3037 100.608C25.6941 100.664 25.8718 101.132 25.8855 101.526C25.9081 102.189 25.6816 102.858 25.2605 103.37C24.8394 103.883 24.3986 104.201 23.7438 104.307" fill="#E0E0E0"/>
<path d="M24.5077 108.165C24.4587 107.139 24.7887 105.553 25.3882 104.718C25.483 104.586 25.588 104.456 25.7269 104.372C25.8661 104.289 26.0465 104.257 26.192 104.329C26.4008 104.432 26.4667 104.695 26.4881 104.927C26.6253 106.404 25.84 107.927 24.5579 108.672" fill="#E0E0E0"/>
<path d="M25.6221 112.256C25.7236 111.234 26.1038 110.241 26.7107 109.413C26.8531 109.218 27.0312 109.019 27.2701 108.988C27.6326 108.942 27.9206 109.311 28.0001 109.668C28.1636 110.403 27.7991 111.148 27.376 111.77C26.9204 112.44 25.9762 113.158 25.9762 113.158" fill="#E0E0E0"/>
<path d="M26.6318 115.131C26.8148 114.331 27.108 113.54 27.6158 112.895C27.7263 112.755 27.8507 112.619 28.0119 112.542C28.1732 112.466 28.3791 112.461 28.5192 112.571C28.7448 112.749 28.6946 113.101 28.5986 113.372C28.2666 114.308 27.7272 115.106 26.9134 115.675" fill="#E0E0E0"/>
<path d="M26.1829 113.976C25.2642 113.374 24.2895 112.856 23.2762 112.431C23.1179 112.365 22.9253 112.304 22.7858 112.404C22.6777 112.482 22.6461 112.634 22.6777 112.764C22.709 112.893 22.7919 113.002 22.8772 113.104C23.7251 114.114 25.1447 114.666 26.461 114.591" fill="#E0E0E0"/>
<path d="M25.0577 110.174C24.2602 109.654 23.4624 109.134 22.6646 108.615C22.437 108.466 22.2024 108.315 21.9362 108.26C21.6702 108.205 21.3614 108.268 21.1967 108.484C21.0322 108.7 21.0531 109.014 21.1801 109.254C21.3072 109.494 21.5212 109.673 21.7361 109.839C22.247 110.234 22.8001 110.59 23.4175 110.778C24.0349 110.967 24.5676 111.048 25.1482 110.766" fill="#E0E0E0"/>
<path d="M23.9529 105.843C23.3004 104.947 22.406 104.228 21.3895 103.783C21.2196 103.709 21.0375 103.641 20.853 103.662C20.4856 103.705 20.2429 104.099 20.2365 104.469C20.2293 104.885 20.4494 105.281 20.7559 105.563C21.0621 105.844 21.4481 106.023 21.839 106.165C22.56 106.425 23.3224 106.571 24.0886 106.594" fill="#E0E0E0"/>
<path d="M23.4435 101.832C22.8905 100.664 21.9338 99.8489 20.8851 99.0938C20.6641 98.9346 20.3776 98.7823 20.1334 98.9027C19.9777 98.9792 19.8872 99.1535 19.8707 99.3261C19.8539 99.4992 19.9 99.6715 19.9565 99.8359C20.4614 101.299 21.9222 102.378 23.4687 102.431" fill="#E0E0E0"/>
<path d="M23.3146 99.7415C23.0556 99.1328 22.7955 98.52 22.6549 97.8739C22.5142 97.2278 22.4991 96.539 22.7256 95.9179C22.8228 95.6508 22.9695 95.393 23.1945 95.2195C23.4196 95.0461 23.7334 94.9704 23.9964 95.0783C24.2397 95.1784 24.4044 95.4188 24.474 95.6728C24.5436 95.9266 24.5312 96.1951 24.508 96.4573C24.398 97.7095 24.0179 99.1783 23.3146 99.7415Z" fill="#E0E0E0"/>
<path d="M41.2689 95.8818C41.2747 95.8815 41.2813 95.9598 41.2886 96.1083C41.2947 96.2739 41.3028 96.49 41.3126 96.7594C41.3234 97.0421 41.3312 97.3881 41.3248 97.79C41.3205 98.192 41.326 98.6499 41.3005 99.1554C41.2715 100.167 41.1856 101.37 41.0406 102.701C40.8843 104.03 40.6625 105.486 40.3493 106.999C40.0279 108.511 39.646 109.934 39.2551 111.214C38.8534 112.491 38.4483 113.627 38.0684 114.565C37.8889 115.038 37.6998 115.455 37.5424 115.825C37.3863 116.196 37.2402 116.51 37.1169 116.764C36.9998 117.007 36.9055 117.201 36.8333 117.35C36.7669 117.483 36.7295 117.552 36.7243 117.55C36.719 117.547 36.7463 117.473 36.8029 117.336C36.8678 117.184 36.9522 116.985 37.0578 116.737C37.172 116.479 37.3092 116.162 37.4565 115.789C37.6056 115.416 37.7865 114.997 37.9585 114.522C38.3233 113.581 38.7154 112.444 39.1078 111.169C39.4894 109.89 39.8655 108.471 40.1854 106.965C40.4975 105.457 40.7234 104.007 40.8875 102.683C41.0403 101.358 41.1384 100.159 41.1821 99.1504C41.2155 98.6467 41.2184 98.1897 41.2314 97.7889C41.2465 97.3878 41.2483 97.0424 41.2474 96.76C41.2503 96.4905 41.2529 96.2745 41.2546 96.1092C41.2584 95.9604 41.2631 95.8818 41.2689 95.8818Z" fill="#EBEBEB"/>
<path d="M40.8714 103.232C40.8575 102.366 40.531 101.507 39.9652 100.85C39.7717 100.625 39.5067 100.408 39.2132 100.451C38.8229 100.507 38.6451 100.975 38.6315 101.369C38.6086 102.032 38.8353 102.701 39.2564 103.213C39.6775 103.726 40.1183 104.044 40.7731 104.15" fill="#EBEBEB"/>
<path d="M40.0096 108.009C40.0583 106.982 39.7286 105.396 39.1291 104.562C39.0343 104.43 38.9293 104.3 38.7904 104.216C38.6515 104.132 38.4708 104.101 38.3252 104.173C38.1164 104.276 38.0506 104.539 38.0292 104.771C37.892 106.248 38.677 107.771 39.9594 108.516" fill="#EBEBEB"/>
<path d="M38.8954 112.1C38.7936 111.078 38.4134 110.085 37.8067 109.256C37.6643 109.062 37.4863 108.863 37.2473 108.832C36.8848 108.786 36.5968 109.155 36.5174 109.512C36.3541 110.246 36.7186 110.992 37.1414 111.614C37.597 112.284 38.5416 113.001 38.5416 113.001" fill="#EBEBEB"/>
<path d="M37.8858 114.975C37.7028 114.174 37.4099 113.384 36.9015 112.738C36.7913 112.598 36.6666 112.462 36.5056 112.386C36.3444 112.309 36.1385 112.305 35.9984 112.415C35.7728 112.593 35.823 112.945 35.9193 113.216C36.2513 114.152 36.7907 114.95 37.6045 115.519" fill="#EBEBEB"/>
<path d="M38.3348 113.82C39.2535 113.217 40.2282 112.7 41.2414 112.275C41.3998 112.209 41.5923 112.148 41.7321 112.248C41.84 112.325 41.8719 112.478 41.8403 112.607C41.8087 112.736 41.726 112.846 41.6405 112.948C40.7928 113.957 39.373 114.509 38.0566 114.435" fill="#EBEBEB"/>
<path d="M39.4596 110.018C40.2571 109.498 41.0549 108.978 41.8527 108.459C42.0804 108.31 42.315 108.159 42.5812 108.104C42.8471 108.049 43.156 108.112 43.3207 108.328C43.4851 108.543 43.4642 108.858 43.3372 109.098C43.2102 109.338 42.9962 109.517 42.7813 109.683C42.2703 110.078 41.7173 110.434 41.0999 110.622C40.4825 110.811 39.95 110.892 39.3691 110.61" fill="#EBEBEB"/>
<path d="M40.564 105.687C41.2165 104.79 42.1109 104.071 43.1271 103.627C43.297 103.553 43.4794 103.485 43.6636 103.506C44.031 103.549 44.2737 103.943 44.2801 104.313C44.2873 104.729 44.0672 105.125 43.7607 105.407C43.4542 105.688 43.0685 105.867 42.6773 106.008C41.9563 106.269 41.1942 106.414 40.4277 106.438" fill="#EBEBEB"/>
<path d="M41.0738 101.675C41.6271 100.508 42.5835 99.6924 43.6321 98.9375C43.8531 98.7783 44.1397 98.6261 44.3841 98.7464C44.5399 98.823 44.63 98.997 44.6469 99.1698C44.6634 99.343 44.6176 99.5152 44.561 99.6794C44.0561 101.142 42.5954 102.222 41.0488 102.275" fill="#EBEBEB"/>
<path d="M41.2032 99.585C41.4622 98.9765 41.7226 98.3638 41.863 97.7177C42.0033 97.0715 42.0187 96.3828 41.7919 95.7616C41.6948 95.4945 41.548 95.2367 41.323 95.0633C41.0979 94.8899 40.7842 94.8142 40.5211 94.9221C40.2775 95.0224 40.1131 95.2625 40.0435 95.5166C39.9739 95.7703 39.9864 96.0388 40.0093 96.301C40.1198 97.5532 40.5 99.0221 41.2032 99.585Z" fill="#EBEBEB"/>
<path d="M20.2021 117.55V120.566C20.2021 121.223 20.7337 121.754 21.39 121.754H42.0299C42.6856 121.754 43.2177 121.223 43.2177 120.566V117.55H20.2021Z" fill="#EBEBEB"/>
<path d="M21.9912 121.754L22.1626 122.715L41.2075 124.072L41.6897 121.754H21.9912Z" fill="#E0E0E0"/>
<path d="M34.1477 76.751L29.8003 74.9638C29.8003 74.9638 28.2995 78.614 24.4793 77.1199C22.4952 76.3439 22.0042 74.6334 21.9961 73.474C21.9862 72.1281 22.67 70.8797 23.7532 70.0807C24.9903 69.1681 27.1108 68.6055 29.8281 70.3261L33.8078 60.6462L29.5091 58.8789L27.1485 64.6206C27.1485 64.6206 20.4788 63.7004 17.7473 70.3443C15.1338 76.7014 20.4512 80.6135 23.4191 81.8336C25.2855 82.6009 31.0766 84.454 34.1477 76.751Z" fill="#F5F5F5"/>
<path d="M30.2848 56.8385L34.6475 58.6318L36.3224 54.5573L31.9598 52.7639L30.2848 56.8385Z" fill="#F5F5F5"/>
<path d="M32.6757 76.138L28.3283 74.3505C28.3283 74.3505 26.8276 78.001 23.0074 76.5069C21.0232 75.7309 20.5325 74.0205 20.5241 72.861C20.5143 71.5151 21.1981 70.2667 22.2812 69.4675C23.5184 68.5548 25.5887 68.114 28.306 69.8349L32.3358 60.0329L28.0371 58.2656L25.6765 64.0073C25.6765 64.0073 19.0068 63.0872 16.2753 69.7311C13.6618 76.0882 18.7557 79.9083 21.1958 80.9117C23.0622 81.6788 29.6046 83.8413 32.6757 76.138Z" fill="#E0E0E0"/>
<path d="M28.8171 56.2228L33.1797 58.0166L34.8551 53.9421L30.4924 52.1482L28.8171 56.2228Z" fill="#E0E0E0"/>
<path d="M105.788 70.0758L111.127 67.9672C111.127 67.9672 109.357 63.4841 113.984 61.5637C116.388 60.5664 118.268 61.6559 119.257 62.6692C120.406 63.8454 120.861 65.5231 120.585 67.1439C120.269 68.9947 118.879 71.2857 115.031 72.0727L119.726 83.9621L125.005 81.877L122.22 74.8251C122.22 74.8251 128.869 69.9865 125.646 61.8262C122.563 54.0182 114.57 55.0784 110.925 56.518C108.633 57.4225 101.967 60.6955 105.788 70.0758Z" fill="#F5F5F5"/>
<path d="M126.048 84.3342L120.689 86.4502L122.666 91.4545L128.024 89.3385L126.048 84.3342Z" fill="#F5F5F5"/>
<path d="M103.658 70.9165L108.998 68.8079C108.998 68.8079 107.227 64.3248 111.854 62.4044C114.258 61.4071 116.138 62.4966 117.128 63.5099C118.276 64.6861 118.732 66.3638 118.455 67.9846C118.139 69.8353 116.69 71.9764 112.842 72.7635L117.596 84.8028L122.876 82.7177L120.091 75.6658C120.091 75.6658 126.74 70.8271 123.517 62.6668C120.434 54.8589 112.716 55.8107 109.718 56.9941C107.426 57.8987 99.8371 61.5361 103.658 70.9165Z" fill="#E0E0E0"/>
<path d="M123.918 85.1751L118.56 87.291L120.536 92.2956L125.894 90.1796L123.918 85.1751Z" fill="#E0E0E0"/>
<path d="M136.641 136.143C136.641 136.185 107.922 136.218 72.503 136.218C37.0723 136.218 8.35938 136.185 8.35938 136.143C8.35938 136.101 37.0723 136.067 72.503 136.067C107.922 136.067 136.641 136.101 136.641 136.143Z" fill="#263238"/>
<path d="M36.8569 101.279C36.8569 101.279 34.3803 98.9537 33.428 98.3363C32.4756 97.7189 30.3395 96.8692 29.5417 96.792C28.7439 96.7149 25.0119 97.796 25.0119 97.796C25.0119 97.796 19.5042 97.3068 18.5776 97.9503C17.6511 98.5938 17.7282 99.2628 18.1142 99.7518C18.5005 100.241 19.9931 100.086 21.6403 100.112C23.2875 100.138 23.7248 100.292 23.7248 100.292L21.3315 102.84L27.534 104.565L31.3173 104.423L32.6818 106.138L36.8569 101.279Z" fill="#FFBF9D"/>
<path d="M17.9746 95.5229L18.1243 101.011L18.3899 101.694L21.0968 104.994L27.7018 104.558L22.4397 102.508L20.5687 101.087L19.8451 98.7414C19.8457 98.7411 20.0701 95.1239 17.9746 95.5229Z" fill="#FFBF9D"/>
<path d="M18.4389 101.819H16.8305C16.8305 101.819 14.7318 98.3674 12.8108 99.5398L13.2522 100.222C13.2522 100.222 12.3869 99.8301 11.8379 100.558L17.1324 105.203H17.376L23.0177 104.84L18.4389 101.819Z" fill="#FFBF9D"/>
<path d="M19.3968 102.868C19.395 102.885 19.2268 102.877 18.9415 102.887C18.6608 102.904 18.244 102.922 17.8267 103.111L17.7728 103.136L17.7377 103.086C17.5744 102.856 17.3729 102.608 17.1658 102.349C16.7372 101.821 16.3497 101.342 16.0238 100.94C15.7335 100.577 15.5551 100.353 15.5702 100.339C15.5856 100.324 15.7938 100.525 16.1053 100.871C16.417 101.216 16.8372 101.702 17.2835 102.255C17.4921 102.515 17.6893 102.763 17.8554 103.009L17.7667 102.985C18.2298 102.788 18.6544 102.795 18.9418 102.802C19.2318 102.816 19.3988 102.854 19.3968 102.868Z" fill="#FF9A6C"/>
<path d="M30.8407 99.6773C30.8543 99.7263 29.9495 99.9102 28.9792 100.465C28.0062 101.016 27.3856 101.699 27.3505 101.663C27.3369 101.65 27.4752 101.466 27.7412 101.205C28.0068 100.945 28.4087 100.617 28.9043 100.334C29.4005 100.052 29.8886 99.8751 30.2476 99.7797C30.6078 99.684 30.8369 99.6593 30.8407 99.6773Z" fill="#FF9A6C"/>
<path d="M25.5637 98.2556C25.5936 98.2867 25.2288 98.6802 24.806 99.1863C24.3817 99.6911 24.0583 100.119 24.0224 100.095C23.9885 100.073 24.2599 99.6015 24.6903 99.0891C25.1195 98.5761 25.5365 98.2261 25.5637 98.2556Z" fill="#FF9A6C"/>
<path d="M20.0475 103.636C20.0435 103.639 20.0003 103.595 19.9211 103.51C19.8326 103.411 19.7198 103.285 19.5806 103.13C19.4304 102.959 19.2529 102.756 19.0488 102.523C18.9449 102.403 18.8345 102.276 18.7179 102.142C18.603 102.007 18.4708 101.868 18.36 101.696C18.1382 101.358 17.9856 100.918 17.9842 100.439C17.9752 99.971 17.9653 99.4722 17.9552 98.9476C17.9378 97.8946 17.9186 96.7395 17.8986 95.5238L17.8975 95.4571L17.9598 95.4487C18.0149 95.4415 18.0747 95.433 18.1347 95.4249C18.5242 95.3814 18.9406 95.518 19.2025 95.8037C19.4661 96.0835 19.6134 96.4304 19.7132 96.7676C19.9054 97.4512 19.9362 98.1231 19.9118 98.7451L19.9089 98.7214C20.1769 99.6108 20.4158 100.403 20.6168 101.071L20.5988 101.046C21.1663 101.489 21.6254 101.848 21.9589 102.108C22.1062 102.227 22.2254 102.323 22.32 102.399C22.4012 102.467 22.442 102.504 22.4392 102.508C22.4363 102.512 22.3896 102.482 22.3026 102.422C22.204 102.352 22.0793 102.263 21.9253 102.152C21.5851 101.901 21.1162 101.554 20.5373 101.126L20.5246 101.117L20.5194 101.101C20.3094 100.436 20.0603 99.6467 19.7807 98.7608L19.7775 98.7506L19.7778 98.737C19.7964 98.1327 19.7604 97.4648 19.5725 96.8094C19.4756 96.4849 19.3321 96.1586 19.0946 95.9081C18.8582 95.6546 18.5047 95.5386 18.1483 95.5757C18.0935 95.583 18.0384 95.5908 17.9879 95.5975L18.0491 95.5221C18.0648 96.7375 18.0793 97.8931 18.0929 98.9461C18.1364 99.9884 17.9734 100.982 18.4488 101.639C18.5505 101.803 18.6764 101.942 18.7904 102.081C18.9038 102.218 19.0111 102.347 19.1123 102.469C19.3089 102.708 19.4803 102.917 19.6247 103.093C19.7552 103.256 19.8608 103.387 19.944 103.49C20.0159 103.582 20.0516 103.632 20.0475 103.636Z" fill="#FF9A6C"/>
<path d="M17.3761 105.202C17.3782 105.209 17.263 105.215 17.0948 105.122C16.9266 105.032 16.7123 104.86 16.4737 104.626C15.9952 104.157 15.4134 103.44 14.8146 102.62C14.216 101.799 13.7088 101.032 13.3524 100.471C13.1746 100.189 13.0345 99.9592 12.9415 99.7983C12.8484 99.6373 12.8017 99.5451 12.8107 99.5393C12.8194 99.5338 12.8826 99.6153 12.991 99.7664C13.1169 99.9468 13.2671 100.161 13.4417 100.411C13.8202 100.957 14.3404 101.713 14.9367 102.531C15.5335 103.348 16.0981 104.07 16.5499 104.551C16.7753 104.792 16.9736 104.971 17.125 105.072C17.2755 105.175 17.3773 105.188 17.3761 105.202Z" fill="#FF9A6C"/>
<path d="M27.0128 101.66L24.0983 101.463L23.2271 99.0756L23.0664 97.4699C22.9878 96.6852 22.3316 96.0654 21.5431 96.0773C21.5338 96.0773 21.5242 96.0776 21.5146 96.0779L21.6782 100.014L22.2768 102.458L24.6449 103.855H27.5406L27.0128 101.66Z" fill="#FFBF9D"/>
<path d="M27.0128 101.66L24.0983 101.463L23.2271 99.0756L23.0664 97.4699C22.9878 96.6852 22.3316 96.0654 21.5431 96.0773C21.5338 96.0773 21.5242 96.0776 21.5146 96.0779L21.6782 100.014L22.2768 102.458L24.6449 103.855" fill="#FFBF9D"/>
<path d="M24.6454 103.855C24.6428 103.86 24.5842 103.831 24.4743 103.772C24.3516 103.704 24.1936 103.616 23.9975 103.507C23.5701 103.262 22.9782 102.922 22.2503 102.504L22.2311 102.493L22.2253 102.471C22.0493 101.77 21.8417 100.943 21.6126 100.03L21.6111 100.024L21.6108 100.017C21.5595 98.8334 21.5012 97.4953 21.4397 96.0813L21.4365 96.0061L21.5134 96.0024C21.5395 96.0012 21.5693 96.0027 21.5986 96.0038C22.3315 96.0091 22.9553 96.5806 23.0994 97.2343C23.1411 97.3996 23.1481 97.5611 23.1646 97.7148C23.1797 97.8708 23.1948 98.0248 23.2099 98.1777C23.2395 98.4825 23.2682 98.7797 23.296 99.0685L23.2922 99.052C23.6109 99.9409 23.8998 100.746 24.1501 101.445L24.1022 101.409C24.9879 101.479 25.7111 101.536 26.2331 101.577C26.4715 101.599 26.6638 101.617 26.812 101.631C26.9442 101.645 27.0135 101.655 27.0132 101.661C27.0129 101.666 26.9428 101.667 26.8099 101.663C26.6612 101.657 26.4683 101.648 26.2291 101.638C25.7062 101.609 24.9818 101.568 24.095 101.519L24.0596 101.517L24.0468 101.483C23.7887 100.787 23.4912 99.9849 23.1629 99.0993L23.16 99.0915L23.1591 99.0828C23.1293 98.7936 23.0985 98.4967 23.0672 98.1922C23.0515 98.0399 23.0359 97.8856 23.0196 97.7296C23.0022 97.5724 22.9938 97.415 22.9561 97.2697C22.8224 96.6749 22.2543 96.1587 21.5952 96.1549C21.5688 96.154 21.5424 96.1523 21.5171 96.1535L21.5905 96.0749C21.6465 97.4889 21.6996 98.8276 21.7468 100.011L21.7448 99.9977C21.9635 100.913 22.1615 101.743 22.3294 102.446L22.3048 102.413C23.0225 102.848 23.6063 103.202 24.0277 103.457C24.2179 103.576 24.371 103.672 24.4899 103.746C24.5946 103.813 24.6483 103.851 24.6454 103.855Z" fill="#FF9A6C"/>
<path d="M89.4421 55.2216C86.9438 45.7006 84.6377 34.6212 70.7174 35.6173C70.7174 35.6173 62.1386 37.268 58.065 43.599C55.6684 47.3232 53.5926 63.3767 53.1797 76.0561C53.1797 76.0581 53.1797 76.0604 53.1797 76.0622C53.1628 76.5787 53.3777 80.1773 53.3632 80.6827L90.2109 83.7498H96.849C96.849 83.7498 96.4326 77.0235 94.4321 70.4988C92.4857 64.1527 90.3263 58.5917 89.4421 55.2216Z" fill="#263238"/>
<path d="M68.8652 39.2453L69.7361 38.415L79.1471 42.2079C80.5087 42.2833 81.5863 43.388 81.6278 44.7512L81.5451 75.415C81.557 77.4943 81.1403 79.2952 79.8849 80.9528L78.5631 82.6977C75.5491 86.6765 69.3498 86.3491 66.9639 81.9655C66.7972 81.659 66.6815 81.3904 66.6313 81.1724C66.5809 80.8992 66.5063 80.7191 66.4912 80.4868C66.2111 78.0198 66.1952 75.8807 66.1952 75.8807C66.0275 73.1721 65.9721 72.0608 65.9716 72.0861C65.9716 72.0861 60.2075 71.4234 58.6491 64.0244C57.8742 60.3448 58.0203 55.2823 58.2381 50.2998C58.5397 43.4039 63.3227 39.2383 68.8652 39.2453Z" fill="#FFBF9D"/>
<path d="M71.2882 55.218C71.2957 55.7241 71.7304 56.135 72.2588 56.1367C72.7863 56.1388 73.2091 55.731 73.2016 55.225C73.1941 54.7189 72.7594 54.3074 72.2318 54.3057C71.7032 54.3036 71.2806 54.7123 71.2882 55.218Z" fill="#263238"/>
<path d="M61.461 55.4749C61.4686 55.9809 61.9033 56.3918 62.432 56.3936C62.9595 56.3953 63.382 55.9879 63.3747 55.4818C63.3672 54.9758 62.9325 54.5642 62.4053 54.5625C61.8763 54.5605 61.4535 54.9688 61.461 55.4749Z" fill="#263238"/>
<path d="M59.2226 52.2694C59.3473 52.3883 60.045 51.8158 61.0748 51.7668C62.1023 51.703 62.8844 52.1952 62.9897 52.0632C63.0419 52.0046 62.9096 51.7857 62.5689 51.5624C62.2331 51.3402 61.669 51.1361 61.0281 51.1709C60.3872 51.2066 59.8597 51.4699 59.5616 51.7268C59.2574 51.9855 59.1614 52.2166 59.2226 52.2694Z" fill="#263238"/>
<path d="M69.432 51.9193C69.5686 52.0246 70.2049 51.3834 71.2231 51.2294C72.2384 51.0604 73.0669 51.469 73.1582 51.3274C73.2035 51.2636 73.0512 51.0595 72.6879 50.8727C72.3312 50.686 71.7494 50.5407 71.1152 50.6413C70.4812 50.7428 69.9839 51.0586 69.7136 51.3451C69.4384 51.6331 69.3659 51.8729 69.432 51.9193Z" fill="#263238"/>
<path d="M66.0726 59.8696C66.0743 59.811 65.4291 59.7325 64.3857 59.6518C64.1215 59.6379 63.87 59.5982 63.8167 59.421C63.7453 59.2339 63.8407 58.9454 63.953 58.6331C64.1684 57.9846 64.3935 57.3049 64.6301 56.5926C65.5665 53.6891 66.2306 51.3065 66.1135 51.27C65.996 51.2331 65.1414 53.5569 64.205 56.4604C63.9805 57.1761 63.7653 57.8585 63.5615 58.511C63.4768 58.8146 63.3228 59.1623 63.4768 59.5495C63.5574 59.7423 63.7575 59.8751 63.9283 59.9123C64.0994 59.9552 64.2473 59.9505 64.3778 59.9517C65.4241 59.956 66.0717 59.9282 66.0726 59.8696Z" fill="#263238"/>
<path d="M65.9717 72.0853C65.9717 72.0853 71.0055 72.1572 75.827 68.9199C75.827 68.9199 73.574 74.2089 66.0743 73.8853L65.9717 72.0853Z" fill="#FF9A6C"/>
<path d="M69.2892 61.9622C68.9995 61.6119 68.5373 61.4193 68.0883 61.3935C67.4408 61.3564 66.9852 61.4382 66.6395 61.9463C66.4774 62.2264 66.4913 62.6591 66.567 62.7777C66.6424 62.8966 66.5861 62.8992 66.7016 62.9827C67.1195 63.2849 67.6014 63.4786 68.0999 63.5938C68.5982 63.7086 69.1738 63.5894 69.4322 63.1849C69.6616 62.8258 69.5789 62.3122 69.2892 61.9622Z" fill="#FF9A6C"/>
<path d="M69.1855 47.1906C69.3174 47.4539 70.2048 47.1836 71.2926 47.1642C72.3801 47.1204 73.2933 47.3385 73.3966 47.0682C73.4412 46.9397 73.2516 46.7019 72.863 46.4873C72.4773 46.2724 71.8886 46.1022 71.2363 46.1205C70.5841 46.1399 70.0157 46.3438 69.6544 46.5804C69.2904 46.8171 69.1269 47.0647 69.1855 47.1906Z" fill="#263238"/>
<path d="M59.3713 50.4075C59.5638 50.632 60.261 50.3539 61.113 50.2997C61.9633 50.2156 62.6958 50.3777 62.8495 50.1248C62.9165 50.0024 62.7909 49.7742 62.4644 49.5686C62.1425 49.3635 61.6132 49.2096 61.028 49.2565C60.4431 49.3047 59.9463 49.5419 59.6618 49.7962C59.3724 50.0517 59.2857 50.2973 59.3713 50.4075Z" fill="#263238"/>
<path d="M81.4399 57.8374C81.4399 57.8374 77.4787 58.7953 71.8565 46.6884C69.9425 42.5672 66.2256 38.4153 66.2256 38.4153L69.7128 37.9121C69.7128 37.9121 80.109 40.8411 80.2836 40.9719C80.4588 41.1033 82.9067 46.3488 82.9067 46.3488L81.4399 57.8374Z" fill="#263238"/>
<path d="M80.1405 57.3528C80.1141 56.7975 80.6904 55.4557 81.2347 55.3426C82.6879 55.0407 85.3341 55.0262 85.545 58.7448C85.8335 63.8282 80.6701 63.0693 80.653 62.924C80.6399 62.8106 80.2325 59.2709 80.1405 57.3528Z" fill="#FFBF9D"/>
<path d="M82.0978 60.9098C82.1189 60.8921 82.1897 60.9667 82.3434 61.027C82.4933 61.0853 82.7471 61.1175 83.006 61.0029C83.5318 60.7756 83.9358 59.8972 83.9082 58.9793C83.8952 58.5159 83.7731 58.0806 83.5884 57.7253C83.4123 57.3623 83.1571 57.1161 82.8837 57.0836C82.6114 57.0363 82.4289 57.2091 82.3747 57.3556C82.3147 57.5018 82.353 57.6015 82.3263 57.6114C82.313 57.6253 82.2123 57.5328 82.2413 57.3205C82.2567 57.2181 82.3092 57.0949 82.4234 56.9902C82.5397 56.8843 82.7161 56.8234 82.9057 56.833C83.2992 56.8382 83.6728 57.1787 83.8755 57.569C84.0999 57.9597 84.2481 58.4483 84.2629 58.9686C84.2887 59.9949 83.8186 60.9832 83.0957 61.2372C82.7436 61.3506 82.4388 61.2599 82.2782 61.1485C82.114 61.0325 82.0807 60.92 82.0978 60.9098Z" fill="#FF9A6C"/>
<path d="M69.9452 62.1679C69.9298 62.2984 69.0613 62.279 68.03 62.4788C66.9965 62.6676 66.1943 63.0014 66.1326 62.8854C66.0693 62.7847 66.8315 62.2395 67.9459 62.0333C69.0592 61.8202 69.9678 62.051 69.9452 62.1679Z" fill="#263238"/>
<path d="M109.675 101.566C109.675 101.566 113.933 97.9186 115.167 97.8212C116.4 97.7238 119.646 98.327 119.646 98.327C119.646 98.327 121.695 98.3449 122.714 98.2173C124.248 98.0256 125.298 98.1854 125.913 98.3731C126.22 98.4667 126.604 99.2309 125.701 99.7514C125.318 99.9718 121.595 100.224 121.595 100.224L130.91 102.884L129.7 103.882C129.539 104.015 129.339 104.091 129.131 104.099L115.718 104.574L115.104 106.073L109.675 101.566Z" fill="#FFBF9D"/>
<path d="M119.842 101.568H124.192C124.192 101.568 125.718 99.5421 126.27 98.6979C126.753 97.9599 127.335 97.7429 127.842 97.9172C127.974 97.9625 128.082 98.0611 128.151 98.1823C128.254 98.3618 128.256 98.5813 128.159 98.7634L126.246 102.334L127.248 101.995C127.248 101.995 129.257 100.029 129.647 99.5743C130.036 99.1196 131.465 97.2041 132.731 98.6005L130.978 100.548L132.731 99.3147C132.731 99.3147 134.127 98.1133 134.874 99.5421L129.661 103.938" fill="#FFBF9D"/>
<path d="M115.313 99.766C115.311 99.7617 115.371 99.7414 115.487 99.7063C115.603 99.675 115.772 99.6086 116.004 99.5874C116.459 99.5102 117.156 99.5224 117.958 99.7904C118.357 99.9261 118.782 100.116 119.213 100.368C119.427 100.495 119.646 100.633 119.864 100.786C119.973 100.863 120.083 100.941 120.195 101.021C120.299 101.096 120.43 101.196 120.516 101.241C121.617 101.327 122.877 101.401 124.197 101.494L124.135 101.52C124.541 101.036 124.944 100.51 125.333 99.9595C125.484 99.7454 125.629 99.5294 125.77 99.3142C125.91 99.0999 126.043 98.8772 126.198 98.6716C126.351 98.4657 126.517 98.2693 126.711 98.1026C126.806 98.0176 126.912 97.9442 127.027 97.8836C127.147 97.8282 127.261 97.7734 127.426 97.7955L127.401 97.7934C127.631 97.7705 127.892 97.7952 128.087 97.9582C128.281 98.1267 128.334 98.3804 128.315 98.6089L128.314 98.6208L128.307 98.6336C127.478 100.12 126.757 101.413 126.198 102.416L126.202 102.406C126.076 102.834 125.731 103.085 125.435 103.218C125.128 103.351 124.842 103.378 124.615 103.391C124.388 103.401 124.213 103.392 124.096 103.386C123.978 103.38 123.917 103.373 123.917 103.369C123.917 103.364 123.979 103.361 124.096 103.359C124.214 103.357 124.388 103.357 124.612 103.339C124.834 103.319 125.114 103.283 125.403 103.149C125.686 103.016 126.002 102.77 126.109 102.381L126.111 102.375L126.114 102.37C126.663 101.361 127.371 100.061 128.185 98.5663L128.177 98.5909C128.192 98.4048 128.142 98.187 127.995 98.0666C127.848 97.9431 127.629 97.9155 127.416 97.9382L127.41 97.9387L127.39 97.9361C127.314 97.926 127.19 97.9628 127.094 98.0144C126.994 98.0681 126.896 98.1345 126.808 98.2145C126.627 98.3708 126.467 98.5602 126.319 98.7603C126.032 99.1646 125.766 99.6202 125.457 100.046C125.065 100.601 124.662 101.127 124.249 101.616L124.225 101.645L124.187 101.642C122.858 101.545 121.623 101.469 120.486 101.368C120.321 101.289 120.238 101.205 120.12 101.124C120.009 101.044 119.901 100.965 119.794 100.887C119.579 100.734 119.365 100.595 119.154 100.468C118.732 100.214 118.317 100.022 117.927 99.8826C117.143 99.6074 116.463 99.5798 116.011 99.6396C115.782 99.6521 115.612 99.7098 115.494 99.7324C115.377 99.7591 115.314 99.7707 115.313 99.766Z" fill="#FF9A6C"/>
<path d="M132.731 98.6001C132.739 98.6067 132.678 98.6917 132.561 98.8393C132.444 98.9866 132.272 99.1966 132.056 99.4541C131.624 99.9689 131.021 100.673 130.347 101.444C129.661 102.204 129.091 102.946 128.59 103.404C128.343 103.636 128.125 103.805 127.962 103.904C127.799 104.002 127.698 104.035 127.695 104.027C127.689 104.016 127.78 103.966 127.929 103.855C128.079 103.744 128.282 103.566 128.516 103.328C128.99 102.858 129.541 102.112 130.23 101.349C130.905 100.576 131.523 99.8816 131.975 99.3845C132.201 99.136 132.387 98.9362 132.517 98.8007C132.647 98.6647 132.723 98.5931 132.731 98.6001Z" fill="#FF9A6C"/>
<path d="M130.345 98.8044C130.36 98.8189 130.157 99.0553 129.817 99.4256C129.476 99.796 128.999 100.301 128.465 100.851C128.026 101.303 127.619 101.715 127.292 102.038L127.281 102.049L127.268 102.053C126.622 102.256 126.199 102.365 126.19 102.331C126.19 102.323 126.289 102.285 126.47 102.216C126.691 102.136 126.943 102.043 127.23 101.939L127.205 101.954C127.518 101.618 127.918 101.198 128.356 100.746C128.89 100.196 129.38 99.7029 129.74 99.3517C130.1 98.9996 130.33 98.7897 130.345 98.8044Z" fill="#FF9A6C"/>
<path d="M95.2403 79.9248C95.2403 79.9248 101.493 81.5363 102.106 90.0342C102.455 94.8755 99.8785 110.429 99.8785 110.429L109.112 100.946L117.341 106.671C117.341 106.671 106.146 120.36 103.563 122.417C100.979 124.475 96.8646 127.785 95.5251 127.517C94.1855 127.248 94.1855 121.075 94.1855 121.075V86.9892L95.2403 79.9248Z" fill="#D81E05"/>
<path d="M50.2916 80.9658C50.2916 80.9658 44.7285 82.7948 44.9556 93.6603C45.1827 104.526 45.0043 108.184 45.0043 108.184L36.6677 99.362L29.7422 107C29.7422 107 37.4898 118.511 42.912 124.105C48.0209 129.377 52.5623 124.799 54.0381 121.093C55.2341 118.09 56.1951 106.677 56.1951 106.677L50.2916 80.9658Z" fill="#D81E05"/>
<g opacity="0.3">
<path d="M95.7267 99.5008C96.2284 96.3216 96.3623 92.8561 94.9109 89.9375C91.3456 98.7494 91.5063 108.866 92.7823 118.202L95.6078 126.278C97.3875 120.867 95.695 115.102 95.7342 109.445C95.7565 106.232 95.2247 102.68 95.7267 99.5008Z" fill="black"/>
</g>
<path d="M49.1328 87.8845C49.1328 87.8845 52.8518 112.895 53.5716 115.085C54.2913 117.275 54.2913 123.73 54.2913 123.73C54.2913 123.73 50.3882 130.995 50.1484 136.047L97.1493 136.143L94.0953 115.39C93.9903 114.615 93.9833 112.23 94.0257 111.45C94.2232 107.795 94.5056 99.954 95.5531 95.1357C96.7711 89.5331 95.1315 79.9446 95.1315 79.9446L81.092 76.4863C77.7692 81.2615 69.4789 81.3258 66.2086 76.4863L50.3642 80.9654L49.1328 87.8845Z" fill="#D81E05"/>
<path d="M95.0165 114.397C95.0084 114.39 95.0588 114.311 95.1568 114.174C95.2543 114.036 95.4022 113.841 95.5884 113.604C95.9656 113.134 96.5007 112.486 97.2016 111.877C97.9026 111.267 98.6415 110.849 99.1916 110.599C99.4683 110.476 99.695 110.383 99.856 110.33C100.016 110.275 100.106 110.249 100.109 110.259C100.143 110.318 98.6861 110.785 97.3002 111.991C96.6109 112.59 96.0674 113.221 95.6707 113.672C95.2772 114.128 95.0339 114.41 95.0165 114.397Z" fill="#263238"/>
<path d="M51.4947 113.867C51.4663 113.875 51.357 113.358 51.002 112.595C50.6523 111.834 50.0134 110.835 49.0346 110.005C48.0559 109.175 46.9655 108.707 46.1584 108.487C45.3473 108.261 44.8198 108.238 44.8233 108.208C44.8238 108.199 44.9555 108.197 45.1924 108.215C45.4294 108.234 45.7719 108.282 46.186 108.383C47.0113 108.58 48.133 109.041 49.1327 109.89C50.1326 110.737 50.7703 111.769 51.0994 112.551C51.2671 112.943 51.3703 113.272 51.4271 113.504C51.4843 113.735 51.5037 113.865 51.4947 113.867Z" fill="#263238"/>
<path d="M51.7952 100.314C51.7891 100.323 51.714 100.282 51.5823 100.199C51.4498 100.117 51.2653 99.9885 51.0426 99.8226C50.5975 99.4903 50.0119 98.988 49.4285 98.3717C48.8453 97.7546 48.3685 97.1523 48.0368 96.7086C47.7053 96.2637 47.5165 95.9775 47.5322 95.9653C47.5496 95.9523 47.7688 96.2156 48.1206 96.6425C48.4729 97.0682 48.9601 97.6563 49.5381 98.2676C50.1166 98.8781 50.6839 99.387 51.109 99.7385C51.5342 100.09 51.8088 100.295 51.7952 100.314Z" fill="#263238"/>
<path d="M84.6057 113.852C84.6077 113.853 84.5947 113.873 84.5674 113.909C84.534 113.952 84.4934 114.005 84.4436 114.069C84.3299 114.206 84.1756 114.419 83.9482 114.669C83.5089 115.182 82.8274 115.888 81.9133 116.68C81.001 117.474 79.8395 118.332 78.4835 119.178C77.1277 120.026 75.5759 120.854 73.9145 121.651C72.2514 122.445 70.6439 123.149 69.1893 123.803C67.7338 124.456 66.4311 125.059 65.354 125.601C64.2764 126.14 63.4194 126.607 62.8351 126.944C62.5402 127.108 62.318 127.246 62.1629 127.333C62.0921 127.373 62.0344 127.405 61.9868 127.432C61.9465 127.454 61.9254 127.463 61.9239 127.462C61.9225 127.459 61.941 127.445 61.9784 127.419C62.024 127.389 62.0793 127.352 62.1469 127.307C62.2968 127.212 62.5146 127.066 62.8052 126.894C63.3812 126.541 64.232 126.059 65.3056 125.506C66.3786 124.951 67.6787 124.336 69.1316 123.677C70.5839 123.015 72.1887 122.308 73.8493 121.515C75.5069 120.719 77.0558 119.898 78.4101 119.06C79.7644 118.223 80.927 117.379 81.844 116.599C82.7627 115.821 83.4529 115.13 83.9042 114.63C84.1379 114.387 84.2989 114.18 84.4198 114.05C84.4743 113.99 84.5187 113.94 84.5552 113.9C84.5865 113.866 84.6036 113.85 84.6057 113.852Z" fill="#263238"/>
<path d="M50.2577 135.654C50.2557 135.654 50.2554 135.633 50.2565 135.592C50.2586 135.545 50.2612 135.485 50.2647 135.41C50.2751 135.242 50.2899 135.006 50.3087 134.703C50.3923 134.091 50.5216 133.191 50.8394 132.089C51.4467 129.881 52.6389 126.841 54.4575 123.462L54.4488 123.501C54.262 120.779 53.9801 117.74 53.6545 114.544C53.0347 108.508 52.384 103.053 51.9092 99.106C51.6703 97.1386 51.4769 95.5439 51.3417 94.432C51.2768 93.8866 51.226 93.4597 51.1906 93.1607C51.1753 93.0212 51.1637 92.9116 51.1547 92.8295C51.1474 92.7547 51.1448 92.7164 51.1474 92.7158C51.15 92.7155 51.1576 92.7535 51.17 92.8275C51.1825 92.9087 51.1993 93.0177 51.2208 93.1566C51.2631 93.4547 51.3232 93.8802 51.4 94.4242C51.5465 95.5349 51.7564 97.1276 52.0154 99.0926C52.5171 103.037 53.1847 108.49 53.8047 114.528C54.1304 117.726 54.4079 120.767 54.5862 123.491L54.5874 123.511L54.5775 123.53C52.7549 126.891 51.5465 129.918 50.9192 132.111C50.5912 133.206 50.4497 134.099 50.3525 134.708C50.3244 135.009 50.3027 135.243 50.287 135.411C50.2792 135.486 50.2728 135.545 50.2678 135.592C50.2629 135.633 50.2594 135.654 50.2577 135.654Z" fill="#263238"/>
<path d="M96.1332 88.4697C96.1358 88.4697 96.1375 88.5118 96.1387 88.5938C96.1393 88.6829 96.1396 88.8035 96.1402 88.9575C96.1364 89.2777 96.1457 89.7498 96.1155 90.3568C96.0819 91.5719 95.9569 93.3272 95.7414 95.4892C95.5285 97.6517 95.2148 100.219 94.8975 103.073C94.5814 105.926 94.2647 109.068 94.1647 112.378C94.058 115.689 94.3816 118.838 94.8067 121.675C95.2241 124.514 95.717 127.054 96.0981 129.192C96.487 131.329 96.7729 133.065 96.9345 134.269C97.0218 134.871 97.0708 135.34 97.1056 135.658C97.1215 135.811 97.134 135.931 97.143 136.02C97.1505 136.101 97.1531 136.144 97.1505 136.144C97.1479 136.144 97.1401 136.103 97.1276 136.022C97.1148 135.934 97.0974 135.814 97.0751 135.662C97.0307 135.345 96.9725 134.878 96.8759 134.278C96.697 133.077 96.3954 131.346 95.9928 129.212C95.5984 127.077 95.0944 124.538 94.669 121.695C94.236 118.857 93.9063 115.696 94.0136 112.374C94.1142 109.057 94.4355 105.911 94.7589 103.057C95.084 100.203 95.4088 97.6378 95.635 95.4782C95.8641 93.3194 96.005 91.5675 96.0569 90.3541C96.0961 89.748 96.0964 89.2765 96.11 88.9572C96.1158 88.8032 96.1201 88.6826 96.1236 88.5936C96.1271 88.5115 96.1303 88.4697 96.1332 88.4697Z" fill="#263238"/>
<g opacity="0.3">
<path d="M51.2852 93.8271C50.4457 101.686 51.4505 110.064 54.0101 117.542L51.2852 93.8271Z" fill="black"/>
</g>
<g opacity="0.3">
<path d="M80.3581 121.537C76.7966 124.808 73.2235 127.603 68.8428 129.16C72.1453 129.441 75.4771 128.178 78.0306 126.065C80.5837 123.951 82.3997 121.723 83.5696 118.622L80.3581 121.537Z" fill="black"/>
</g>
<path d="M81.253 120.599C78.4922 123.074 76.2767 125.106 76.3045 125.137C76.3323 125.168 78.5929 123.187 81.3537 120.711C84.1145 118.235 86.33 116.203 86.3022 116.172C86.2744 116.141 84.0138 118.123 81.253 120.599Z" fill="#263238"/>
<path d="M82.3618 65.581C83.3652 65.581 84.1786 64.7675 84.1786 63.7641C84.1786 62.7607 83.3652 61.9473 82.3618 61.9473C81.3583 61.9473 80.5449 62.7607 80.5449 63.7641C80.5449 64.7675 81.3583 65.581 82.3618 65.581Z" fill="#455A64"/>
<path d="M94.9983 87.6458C94.4626 83.2042 93.927 78.762 93.3911 74.32L81.8931 70.8496C81.671 78.784 80.2819 87.6948 78.2861 95.3772C82.523 96.7512 87.0508 97.2225 91.48 96.7507C91.676 94.6047 91.8718 92.4584 92.0672 90.3127C92.3546 91.93 92.6417 93.5476 92.9294 95.1652C94.1364 94.489 94.8475 93.1419 95.0884 91.7795C95.3289 90.4171 95.1638 89.0196 94.9983 87.6458Z" fill="#263238"/>
<path d="M85.9996 96.7864C85.9996 96.7864 86.0083 96.7292 86.033 96.6188C86.06 96.5033 86.0977 96.3409 86.1464 96.1301C86.249 95.6954 86.3981 95.0638 86.5895 94.2532C86.965 92.6217 87.5224 90.2625 88.0644 87.3187C88.6099 84.3779 89.1418 80.8448 89.3161 76.8927C89.4898 72.9475 89.2488 68.5642 88.1561 64.1306C87.0805 59.6974 85.1978 55.6882 82.825 52.5306C82.5246 52.1389 82.2392 51.7427 81.9176 51.3846C81.6018 51.0218 81.3071 50.6488 80.9786 50.315C80.8182 50.1448 80.659 49.9757 80.5012 49.8078C80.3377 49.6454 80.175 49.4842 80.0137 49.3244C79.6953 49.0005 79.363 48.7012 79.044 48.3984C77.7535 47.2039 76.4923 46.1541 75.365 45.1684C74.2358 44.1844 73.2292 43.275 72.3957 42.4236C72.1837 42.2148 71.9921 41.9999 71.8007 41.8004C71.6081 41.6014 71.4303 41.4033 71.2659 41.2082C71.0994 41.015 70.9402 40.83 70.7883 40.6537C70.6447 40.4707 70.5084 40.2964 70.3791 40.1311C70.1131 39.8066 69.9116 39.4925 69.7257 39.2292C69.5363 38.9676 69.3963 38.7333 69.2843 38.5428C69.1738 38.3566 69.0889 38.2136 69.0283 38.1116C68.9711 38.0138 68.9453 37.9619 68.9453 37.9619C68.9453 37.9619 68.9801 38.0086 69.0416 38.1037C69.1051 38.2038 69.1944 38.3441 69.3104 38.5265C69.4261 38.7139 69.57 38.9453 69.7628 39.2034C69.9522 39.4635 70.1569 39.7738 70.4258 40.0949C70.5563 40.2581 70.694 40.4307 70.8387 40.6119C70.9918 40.7865 71.1525 40.9695 71.3201 41.1606C71.4857 41.3538 71.6644 41.5498 71.8578 41.7467C72.0503 41.9445 72.2429 42.1573 72.4558 42.3641C73.2927 43.2077 74.3025 44.1099 75.4349 45.0878C76.5656 46.0677 77.8312 47.1129 79.1287 48.3065C79.4491 48.6087 79.7835 48.908 80.1039 49.2322C80.266 49.3923 80.4296 49.5535 80.594 49.7159C80.7532 49.8841 80.9136 50.0538 81.0751 50.2243C81.406 50.5586 81.7033 50.9327 82.0214 51.2967C82.3453 51.6563 82.633 52.0536 82.9358 52.4468C85.3268 55.616 87.2223 59.6438 88.3022 64.0944C89.399 68.5453 89.6365 72.9446 89.4544 76.8988C89.272 80.8602 88.7282 84.3973 88.1688 87.3388C87.6126 90.2828 87.0393 92.6394 86.646 94.2672C86.4465 95.0806 86.2867 95.7111 86.1751 96.1376C86.1203 96.3467 86.0776 96.5077 86.0475 96.6225C86.0188 96.7313 85.9996 96.7864 85.9996 96.7864Z" fill="#455A64"/>
</svg>
