<svg width="16" height="16" viewBox="0 0 16 16" fill="none" xmlns="http://www.w3.org/2000/svg">
<path d="M13.583 14.1377L14.1423 13.577L12.6442 12.0751V9.83229H11.8452V12.3955L13.583 14.1377ZM1.1985 14.418C0.868914 14.418 0.586767 14.3004 0.35206 14.0651C0.117353 13.8298 0 13.5469 0 13.2165V1.2015C0 0.871089 0.117353 0.588235 0.35206 0.352941C0.586767 0.117647 0.868914 0 1.1985 0H13.1835C13.5131 0 13.7953 0.117647 14.03 0.352941C14.2647 0.588235 14.382 0.871089 14.382 1.2015V7.78974C14.1956 7.68294 13.9992 7.59616 13.7928 7.52941C13.5864 7.46266 13.3833 7.40926 13.1835 7.36921V1.2015H1.1985V13.2165H7.37079C7.42405 13.4301 7.48413 13.6382 7.55102 13.8407C7.6179 14.0433 7.69764 14.2357 7.79026 14.418H1.1985ZM1.1985 12.2753V13.2165V1.2015V7.36921V7.28911V12.2753ZM3.196 11.214H7.41074C7.464 11.0004 7.52393 10.7935 7.59051 10.5932C7.65709 10.393 7.74365 10.1994 7.85019 10.0125H3.196V11.214ZM3.196 7.80976H10.0674C10.2538 7.71631 10.4336 7.63955 10.6067 7.57947C10.7799 7.5194 10.9729 7.46266 11.186 7.40926V6.60826H3.196V7.80976ZM3.196 4.40551H11.186V3.20401H3.196V4.40551ZM12.2347 16C11.2027 16 10.3204 15.6295 9.58801 14.8886C8.8556 14.1477 8.48939 13.2699 8.48939 12.2553C8.48939 11.2082 8.85553 10.3156 9.58782 9.57763C10.3201 8.8396 11.2057 8.47059 12.2447 8.47059C13.2701 8.47059 14.1523 8.8396 14.8914 9.57763C15.6305 10.3156 16 11.2082 16 12.2553C16 13.2699 15.6305 14.1477 14.8914 14.8886C14.1523 15.6295 13.2667 16 12.2347 16Z" fill="#D81E05"/>
</svg>
